<svg width="1440" height="30" viewBox="0 0 1440 30" fill="none" xmlns="http://www.w3.org/2000/svg">
<g clip-path="url(#clip0_98_4010)">
<path d="M1131.72 30.0001L1306.21 30.0001L1306.21 20.0001L1131.72 20.0001L1131.72 30.0001Z" fill="#FF488D"/>
<path d="M1091.03 20.0001L1265.52 20.0001L1265.52 10.0001L1091.03 10.0001L1091.03 20.0001Z" fill="#434376"/>
<path d="M1265.52 20.0001L1440 20.0001L1440 10.0001L1265.52 10.0001L1265.52 20.0001Z" fill="#176BF3"/>
<path d="M980.69 10.0001L1440 10.0001L1440 0.00012207L980.69 8.19161e-05L980.69 10.0001Z" fill="#FF488D"/>
<path d="M490.345 10L982.759 10.0001L982.759 6.10352e-05L490.345 1.7987e-05L490.345 10Z" fill="#E2FF66"/>
<path d="M3.05176e-05 10L492.414 10.0001L492.414 6.10352e-05L3.13918e-05 1.7987e-05L3.05176e-05 10Z" fill="#E300FF"/>
<path d="M3.05176e-05 10L492.414 10.0001L492.414 6.10352e-05L3.13918e-05 1.7987e-05L3.05176e-05 10Z" fill="black" fill-opacity="0.2"/>
<path d="M284.828 20L1112.41 20.0001L1112.41 10.0001L284.828 10L284.828 20Z" fill="#0DD8A2"/>
<path d="M832.414 30.0001L1152.41 30.0001L1152.41 20.0001L832.414 20.0001L832.414 30.0001Z" fill="#1DE2DA"/>
</g>
<defs>
<clipPath id="clip0_98_4010">
<rect width="1440" height="30" fill="white" transform="translate(1440 30.0001) rotate(-180)"/>
</clipPath>
</defs>
</svg>
