<svg width="76" height="57" viewBox="0 0 76 57" fill="none" xmlns="http://www.w3.org/2000/svg">
<path d="M9.02071 7.03432L12.4248 19.6903C12.665 20.6084 13.1452 21.2864 13.8656 21.7385C14.586 22.1905 15.3911 22.4165 16.2668 22.4165C17.1426 22.4165 17.9618 22.1763 18.654 21.7102C19.3461 21.2441 19.8263 20.5237 20.1088 19.5632L23.5271 7.0767L25.2645 22.3176H31.2535L28.6968 4.26582C28.4991 2.93807 28.0047 1.9352 27.1713 1.2572C26.3521 0.579199 25.3068 0.226074 24.0497 0.226074C22.8915 0.226074 21.8745 0.508574 20.9846 1.05945C20.0947 1.61032 19.4873 2.48607 19.1907 3.6867L16.281 15.0573L13.343 3.58782C13.0463 2.3872 12.4672 1.5397 11.6056 1.01707C10.744 0.494449 9.74108 0.226074 8.61108 0.226074C7.31158 0.226074 6.23808 0.565074 5.39058 1.22895C4.54308 1.90695 4.02046 2.88157 3.80858 4.15282L0.927083 22.3176H6.94433L9.00658 7.04845L9.02071 7.03432Z" fill="#A7F797"/>
<path d="M63.3031 15.7777H72.6538V10.3395H63.3031V6.14442H75.4506V0.706299H62.5121C60.7041 0.706299 59.3905 1.1583 58.5853 2.04817C57.7802 2.93805 57.3847 4.1528 57.3847 5.66417V22.3034H63.3031V15.7777Z" fill="#A7F797"/>
<path d="M36.4373 19.5209C37.4685 20.552 38.6832 21.343 40.0533 21.9221C41.4235 22.5013 42.9348 22.7838 44.5451 22.7838C46 22.7838 47.3277 22.6001 48.5566 22.2188C49.7855 21.8515 50.859 21.3289 51.7912 20.665C52.7235 20.0011 53.458 19.2525 54.0088 18.3909V10.3255H42.5817L43.3868 15.7636H48.2741V16.4416C47.9775 16.7241 47.6526 16.9219 47.2853 17.0631C46.9181 17.2044 46.5226 17.3033 46.0706 17.3456C45.6186 17.4021 45.1101 17.4304 44.531 17.4304C43.7258 17.4304 42.9772 17.3033 42.3275 17.0349C41.6636 16.7665 41.1127 16.3851 40.6466 15.8625C40.1946 15.354 39.8415 14.7325 39.5872 14.0263C39.3471 13.3059 39.22 12.5008 39.22 11.6109C39.22 10.721 39.333 9.97239 39.5731 9.28027C39.8132 8.58815 40.1522 7.96665 40.6042 7.45815C41.0562 6.94965 41.5788 6.54002 42.2003 6.25752C42.8218 5.97502 43.514 5.81964 44.2767 5.81964C45.1101 5.81964 45.8163 5.93264 46.3955 6.15865C46.9746 6.38464 47.4548 6.69539 47.8503 7.10502C48.2458 7.51465 48.5848 7.99489 48.8956 8.54577L53.7263 5.86202C53.2178 4.64727 52.4833 3.61614 51.5228 2.78277C50.5623 1.94939 49.4747 1.32789 48.2741 0.89002C47.0735 0.46627 45.8305 0.254395 44.5451 0.254395C42.9207 0.254395 41.4235 0.536895 40.0392 1.11602C38.655 1.69514 37.4402 2.48614 36.4091 3.51727C35.378 4.54839 34.5728 5.7349 34.0078 7.10502C33.4428 8.47515 33.1603 9.94414 33.1603 11.5261C33.1603 13.1081 33.4428 14.5771 34.022 15.9473C34.6011 17.3174 35.4062 18.5039 36.4373 19.535V19.5209Z" fill="#A7F797"/>
<path d="M2.36783 51.3867L3.44133 54.5366L4.45833 51.3867H5.87083V55.9773H4.92446V52.7286L3.79446 55.9773H3.01758L1.88758 52.7568V55.9773H0.941208V51.3867H2.36783Z" fill="#A7F797"/>
<path d="M10.1931 51.3867V52.2342H7.77771V53.223H9.99533V53.9998H7.77771V55.1298H10.2496V55.9773H6.77483V51.3867H10.2072H10.1931Z" fill="#A7F797"/>
<path d="M13.6537 55.9491C13.4277 56.0339 13.2158 56.0904 12.9898 56.0904C12.6367 56.0904 12.326 56.0339 12.0435 55.9068C11.761 55.7796 11.5208 55.6101 11.3372 55.3982C11.1395 55.1864 10.9982 54.9321 10.8993 54.6496C10.8005 54.3671 10.744 54.0423 10.744 53.7174C10.744 53.3925 10.8005 53.0535 10.8993 52.7569C10.9982 52.4603 11.1536 52.206 11.3372 51.9941C11.535 51.7822 11.761 51.5986 12.0435 51.4856C12.326 51.3585 12.6367 51.302 12.9898 51.302C13.23 51.302 13.456 51.3302 13.6678 51.415C13.8938 51.4856 14.0916 51.5845 14.2611 51.7258C14.4447 51.867 14.586 52.0365 14.699 52.2343C14.812 52.432 14.8826 52.6721 14.9108 52.9264H13.9503C13.8938 52.6721 13.7808 52.4744 13.5972 52.3472C13.4136 52.2201 13.2158 52.1495 12.9757 52.1495C12.7497 52.1495 12.552 52.1919 12.3966 52.2766C12.2412 52.3614 12.1141 52.4885 12.0152 52.6298C11.9163 52.771 11.8457 52.9405 11.8033 53.1383C11.761 53.3219 11.7327 53.5196 11.7327 53.7174C11.7327 53.9151 11.761 54.0987 11.8033 54.2824C11.8457 54.466 11.9163 54.6355 12.0152 54.7768C12.1141 54.918 12.2412 55.0451 12.3966 55.1299C12.552 55.2146 12.7497 55.257 12.9757 55.257C13.3147 55.257 13.569 55.1723 13.7526 55.0028C13.9362 54.8333 14.0351 54.5931 14.0775 54.2682H13.0605V53.5196H14.9815V56.0056H14.3458L14.247 55.483C14.0633 55.709 13.8656 55.8785 13.6537 55.9633V55.9491Z" fill="#A7F797"/>
<path d="M18.089 51.3868L19.7981 55.9774H18.7528L18.3997 54.9604H16.6906L16.3375 55.9774H15.3205L17.0578 51.3868H18.089ZM18.1455 54.2118L17.5663 52.5309L16.9731 54.2118H18.1596H18.1455ZM17.7358 49.8472L17.0578 50.9772H17.6935L18.7387 49.8472H17.7358Z" fill="#A7F797"/>
<path d="M23.4282 51.3867V52.2342H21.2106V53.2936H23.1316V54.0704H21.2106V55.9632H20.2077V51.3726H23.4282V51.3867Z" fill="#A7F797"/>
<path d="M23.965 52.7569C24.0638 52.4603 24.2192 52.206 24.4028 51.9941C24.6006 51.7822 24.8266 51.5986 25.1091 51.4856C25.3916 51.3585 25.7023 51.302 26.0555 51.302C26.4086 51.302 26.7335 51.3585 27.0018 51.4856C27.2843 51.6127 27.5103 51.7822 27.7081 51.9941C27.9058 52.2201 28.0471 52.4744 28.146 52.7569C28.2448 53.0394 28.3013 53.3643 28.3013 53.7174C28.3013 54.0705 28.2448 54.3671 28.146 54.6496C28.0471 54.9321 27.8917 55.1864 27.7081 55.3982C27.5103 55.6101 27.2843 55.7796 27.0018 55.9068C26.7193 56.0339 26.4086 56.0904 26.0555 56.0904C25.7023 56.0904 25.3916 56.0339 25.1091 55.9068C24.8266 55.7796 24.5865 55.6101 24.4028 55.3982C24.2051 55.1864 24.0638 54.9321 23.965 54.6496C23.8661 54.3671 23.8096 54.0423 23.8096 53.7174C23.8096 53.3925 23.8661 53.0535 23.965 52.7569ZM24.8972 54.2682C24.9396 54.4519 25.0102 54.6214 25.1091 54.7626C25.208 54.9039 25.3351 55.031 25.4905 55.1157C25.6458 55.2005 25.8436 55.2429 26.0696 55.2429C26.2956 55.2429 26.4933 55.2005 26.6487 55.1157C26.8041 55.031 26.9312 54.918 27.0301 54.7626C27.129 54.6214 27.1996 54.4519 27.242 54.2682C27.2843 54.0846 27.3126 53.901 27.3126 53.7032C27.3126 53.5055 27.2843 53.3077 27.242 53.1241C27.1996 52.9405 27.129 52.771 27.0301 52.6156C26.9312 52.4744 26.8041 52.3473 26.6487 52.2625C26.4933 52.1778 26.2956 52.1354 26.0696 52.1354C25.8436 52.1354 25.6458 52.1778 25.4905 52.2625C25.3351 52.3473 25.208 52.4744 25.1091 52.6156C25.0102 52.7569 24.9396 52.9264 24.8972 53.1241C24.8548 53.3077 24.8266 53.5055 24.8266 53.7032C24.8266 53.901 24.8548 54.0846 24.8972 54.2682Z" fill="#A7F797"/>
<path d="M30.0105 51.3867L31.9173 54.466V51.3867H32.8637V55.9773H31.8608L29.954 52.9122V55.9773H29.0076V51.3867H30.0105Z" fill="#A7F797"/>
<path d="M33.7253 52.7569C33.8242 52.4603 33.9796 52.206 34.1632 51.9941C34.361 51.7822 34.587 51.5986 34.8695 51.4856C35.152 51.3585 35.4627 51.302 35.8158 51.302C36.169 51.302 36.4938 51.3585 36.7622 51.4856C37.0447 51.6127 37.2707 51.7822 37.4685 51.9941C37.6662 52.2201 37.8075 52.4744 37.9063 52.7569C38.0052 53.0394 38.0617 53.3643 38.0617 53.7174C38.0617 54.0705 38.0052 54.3671 37.9063 54.6496C37.8075 54.9321 37.6521 55.1864 37.4685 55.3982C37.2707 55.6101 37.0447 55.7796 36.7622 55.9068C36.4797 56.0339 36.169 56.0904 35.8158 56.0904C35.4627 56.0904 35.152 56.0339 34.8695 55.9068C34.587 55.7796 34.3468 55.6101 34.1632 55.3982C33.9655 55.1864 33.8242 54.9321 33.7253 54.6496C33.6265 54.3671 33.57 54.0423 33.57 53.7174C33.57 53.3925 33.6265 53.0535 33.7253 52.7569ZM34.6435 54.2682C34.6858 54.4519 34.7565 54.6214 34.8553 54.7626C34.9542 54.9039 35.0813 55.031 35.2367 55.1157C35.3921 55.2005 35.5898 55.2429 35.8158 55.2429C36.0418 55.2429 36.2396 55.2005 36.395 55.1157C36.5503 55.031 36.6775 54.918 36.7763 54.7626C36.8752 54.6214 36.9458 54.4519 36.9882 54.2682C37.0306 54.0846 37.0588 53.901 37.0588 53.7032C37.0588 53.5055 37.0306 53.3077 36.9882 53.1241C36.9458 52.9405 36.8752 52.771 36.7763 52.6156C36.6775 52.4744 36.5503 52.3473 36.395 52.2625C36.2396 52.1778 36.0418 52.1354 35.8158 52.1354C35.5898 52.1354 35.3921 52.1778 35.2367 52.2625C35.0813 52.3473 34.9542 52.4744 34.8553 52.6156C34.7565 52.7569 34.6858 52.9264 34.6435 53.1241C34.6011 53.3077 34.5728 53.5055 34.5728 53.7032C34.5728 53.901 34.6011 54.0846 34.6435 54.2682Z" fill="#A7F797"/>
<path d="M41.706 52.6156C41.6495 52.5167 41.5647 52.432 41.48 52.3613C41.3952 52.2907 41.2822 52.2342 41.1692 52.1918C41.0562 52.1495 40.9432 52.1353 40.8161 52.1353C40.5901 52.1353 40.3923 52.1777 40.237 52.2625C40.0816 52.3472 39.9545 52.4743 39.8556 52.6156C39.7567 52.7568 39.6861 52.9263 39.6437 53.1241C39.6013 53.3077 39.5731 53.5055 39.5731 53.7032C39.5731 53.901 39.6013 54.0846 39.6437 54.2682C39.6861 54.4518 39.7567 54.6213 39.8556 54.7626C39.9545 54.9038 40.0816 55.031 40.237 55.1157C40.3923 55.2005 40.5901 55.2428 40.8161 55.2428C41.1268 55.2428 41.367 55.144 41.5365 54.9603C41.706 54.7767 41.819 54.5225 41.8472 54.2117H42.8218C42.7936 54.4942 42.7371 54.7626 42.6241 54.9886C42.5111 55.2146 42.3698 55.4123 42.2003 55.5818C42.0308 55.7513 41.819 55.8643 41.5788 55.9491C41.3387 56.0338 41.0845 56.0762 40.802 56.0762C40.4488 56.0762 40.1381 56.0197 39.8556 55.8926C39.5731 55.7655 39.333 55.596 39.1493 55.3841C38.9516 55.1722 38.8103 54.918 38.7115 54.6355C38.6126 54.353 38.5561 54.0281 38.5561 53.7032C38.5561 53.3783 38.6126 53.0393 38.7115 52.7427C38.8103 52.4461 38.9657 52.1918 39.1493 51.98C39.3471 51.7681 39.5731 51.5845 39.8556 51.4715C40.1381 51.3443 40.4488 51.2878 40.802 51.2878C41.0562 51.2878 41.2963 51.3302 41.5223 51.4008C41.7483 51.4715 41.9461 51.5845 42.1297 51.7257C42.3133 51.867 42.4546 52.0365 42.5676 52.2483C42.6806 52.4602 42.7512 52.6862 42.7936 52.9546H41.819C41.8048 52.8416 41.7625 52.7286 41.706 52.6297V52.6156Z" fill="#A7F797"/>
<path d="M43.4857 52.7569C43.5846 52.4603 43.74 52.206 43.9236 51.9941C44.1213 51.7822 44.3473 51.5986 44.6298 51.4856C44.9123 51.3585 45.2231 51.302 45.5762 51.302C45.9293 51.302 46.2542 51.3585 46.5226 51.4856C46.8051 51.6127 47.0311 51.7822 47.2288 51.9941C47.4266 52.2201 47.5678 52.4744 47.6667 52.7569C47.7656 53.0394 47.8221 53.3643 47.8221 53.7174C47.8221 54.0705 47.7656 54.3671 47.6667 54.6496C47.5678 54.9321 47.4125 55.1864 47.2288 55.3982C47.0311 55.6101 46.8051 55.7796 46.5226 55.9068C46.2401 56.0339 45.9293 56.0904 45.5762 56.0904C45.2231 56.0904 44.9123 56.0339 44.6298 55.9068C44.3473 55.7796 44.1072 55.6101 43.9236 55.3982C43.7258 55.1864 43.5846 54.9321 43.4857 54.6496C43.3868 54.3671 43.3303 54.0423 43.3303 53.7174C43.3303 53.3925 43.3868 53.0535 43.4857 52.7569ZM44.4038 54.2682C44.4462 54.4519 44.5168 54.6214 44.6157 54.7626C44.7146 54.9039 44.8417 55.031 44.9971 55.1157C45.1525 55.2005 45.3502 55.2429 45.5762 55.2429C45.8022 55.2429 46 55.2005 46.1553 55.1157C46.3107 55.031 46.4378 54.918 46.5367 54.7626C46.6356 54.6214 46.7062 54.4519 46.7486 54.2682C46.791 54.0846 46.8192 53.901 46.8192 53.7032C46.8192 53.5055 46.791 53.3077 46.7486 53.1241C46.7062 52.9405 46.6356 52.771 46.5367 52.6156C46.4378 52.4744 46.3107 52.3473 46.1553 52.2625C46 52.1778 45.8022 52.1354 45.5762 52.1354C45.3502 52.1354 45.1525 52.1778 44.9971 52.2625C44.8417 52.3473 44.7146 52.4744 44.6157 52.6156C44.5168 52.7569 44.4462 52.9264 44.4038 53.1241C44.3615 53.3077 44.3332 53.5055 44.3332 53.7032C44.3332 53.901 44.3615 54.0846 44.4038 54.2682Z" fill="#A7F797"/>
<path d="M49.5312 51.3867V55.1298H51.763V55.9773H48.5142V51.3867H49.5171H49.5312Z" fill="#A7F797"/>
<path d="M55.7603 51.3867V52.2342H53.345V53.223H55.5626V53.9998H53.345V55.1298H55.8168V55.9773H52.3421V51.3867H55.7745H55.7603Z" fill="#A7F797"/>
<path d="M59.447 52.6156C59.3905 52.5167 59.3057 52.432 59.221 52.3613C59.1362 52.2907 59.0232 52.2342 58.9102 52.1918C58.7972 52.1495 58.6842 52.1353 58.5571 52.1353C58.3311 52.1353 58.1333 52.1777 57.978 52.2625C57.8226 52.3472 57.6955 52.4743 57.5966 52.6156C57.4977 52.7568 57.4271 52.9263 57.3847 53.1241C57.3423 53.3077 57.3141 53.5055 57.3141 53.7032C57.3141 53.901 57.3423 54.0846 57.3847 54.2682C57.4271 54.4518 57.4977 54.6213 57.5966 54.7626C57.6955 54.9038 57.8226 55.031 57.978 55.1157C58.1333 55.2005 58.3311 55.2428 58.5571 55.2428C58.8678 55.2428 59.108 55.144 59.2775 54.9603C59.447 54.7767 59.56 54.5225 59.5882 54.2117H60.5628C60.5346 54.4942 60.4781 54.7626 60.3651 54.9886C60.2521 55.2146 60.1108 55.4123 59.9413 55.5818C59.7718 55.7513 59.56 55.8643 59.3198 55.9491C59.0797 56.0338 58.8255 56.0762 58.543 56.0762C58.1898 56.0762 57.8791 56.0197 57.5966 55.8926C57.3141 55.7655 57.074 55.596 56.8903 55.3841C56.6926 55.1722 56.5513 54.918 56.4525 54.6355C56.3536 54.353 56.2971 54.0281 56.2971 53.7032C56.2971 53.3783 56.3536 53.0393 56.4525 52.7427C56.5513 52.4461 56.7067 52.1918 56.8903 51.98C57.0881 51.7681 57.3141 51.5845 57.5966 51.4715C57.8791 51.3443 58.1898 51.2878 58.543 51.2878C58.7972 51.2878 59.0373 51.3302 59.2633 51.4008C59.4893 51.4715 59.6871 51.5845 59.8707 51.7257C60.0543 51.867 60.1956 52.0365 60.3086 52.2483C60.4216 52.4602 60.4922 52.6862 60.5346 52.9546H59.56C59.5458 52.8416 59.5035 52.7286 59.447 52.6297V52.6156Z" fill="#A7F797"/>
<path d="M60.9018 52.2342V51.3867H64.6591V52.2342H63.289V55.9773H62.2861V52.2342H60.916H60.9018Z" fill="#A7F797"/>
<path d="M66.1987 51.3867V55.9773H65.1958V51.3867H66.1987Z" fill="#A7F797"/>
<path d="M68.0773 55.9773L66.5942 51.3867H67.6253L68.6423 54.6072L69.6735 51.3867H70.7187L69.1932 55.9773H68.0632H68.0773Z" fill="#A7F797"/>
<path d="M71.086 52.7569C71.1848 52.4603 71.3402 52.206 71.5238 51.9941C71.7216 51.7822 71.9476 51.5986 72.2301 51.4856C72.5126 51.3585 72.8233 51.302 73.1765 51.302C73.5296 51.302 73.8545 51.3585 74.1228 51.4856C74.4053 51.6127 74.6313 51.7822 74.8291 51.9941C75.0268 52.2201 75.1681 52.4744 75.267 52.7569C75.3658 53.0394 75.4223 53.3643 75.4223 53.7174C75.4223 54.0705 75.3658 54.3671 75.267 54.6496C75.1681 54.9321 75.0127 55.1864 74.8291 55.3982C74.6313 55.6101 74.4053 55.7796 74.1228 55.9068C73.8403 56.0339 73.5296 56.0904 73.1765 56.0904C72.8233 56.0904 72.5126 56.0339 72.2301 55.9068C71.9476 55.7796 71.7075 55.6101 71.5238 55.3982C71.3261 55.1864 71.1848 54.9321 71.086 54.6496C70.9871 54.3671 70.9306 54.0423 70.9306 53.7174C70.9306 53.3925 70.9871 53.0535 71.086 52.7569ZM72.0041 54.2682C72.0465 54.4519 72.1171 54.6214 72.216 54.7626C72.3148 54.9039 72.442 55.031 72.5973 55.1157C72.7527 55.2005 72.9505 55.2429 73.1765 55.2429C73.4025 55.2429 73.6002 55.2005 73.7556 55.1157C73.911 55.031 74.0381 54.918 74.137 54.7626C74.2358 54.6214 74.3065 54.4519 74.3488 54.2682C74.3912 54.0846 74.4195 53.901 74.4195 53.7032C74.4195 53.5055 74.3912 53.3077 74.3488 53.1241C74.3065 52.9405 74.2358 52.771 74.137 52.6156C74.0381 52.4744 73.911 52.3473 73.7556 52.2625C73.6002 52.1778 73.4025 52.1354 73.1765 52.1354C72.9505 52.1354 72.7527 52.1778 72.5973 52.2625C72.442 52.3473 72.3148 52.4744 72.216 52.6156C72.1171 52.7569 72.0465 52.9264 72.0041 53.1241C71.9617 53.3077 71.9335 53.5055 71.9335 53.7032C71.9335 53.901 71.9617 54.0846 72.0041 54.2682Z" fill="#A7F797"/>
<path d="M12.0152 46.7115C10.3908 46.7115 8.89358 46.429 7.50933 45.8498C6.12508 45.2707 4.92446 44.4656 3.89333 43.4486C2.86221 42.4175 2.05708 41.231 1.47796 39.8608C0.898833 38.4907 0.616333 37.0217 0.616333 35.4397C0.616333 33.8577 0.898833 32.3887 1.47796 31.0186C2.05708 29.6485 2.86221 28.462 3.89333 27.4308C4.92446 26.3997 6.13921 25.6087 7.50933 25.0296C8.89358 24.4505 10.3908 24.168 12.0152 24.168C13.3006 24.168 14.5436 24.394 15.7442 24.8177C16.9448 25.2556 18.0325 25.8912 18.993 26.7246C19.9535 27.558 20.688 28.575 21.1965 29.7615L16.3657 32.4452C15.9137 31.6401 15.3487 30.9762 14.6707 30.496C13.9927 30.0016 13.0181 29.7615 11.761 29.7615C10.9982 29.7615 10.292 29.9027 9.68458 30.1711C9.06308 30.4536 8.52633 30.835 8.08846 31.3435C7.63646 31.852 7.29746 32.4452 7.05733 33.1373C6.81721 33.8295 6.70421 34.5922 6.70421 35.4256C6.70421 36.259 6.81721 37.0217 7.05733 37.7138C7.29746 38.406 7.62233 38.9992 8.06021 39.5077C8.49808 40.0162 9.03483 40.3976 9.65633 40.6801C10.292 40.9626 10.9841 41.0897 11.761 41.0897C13.0181 41.0897 14.0068 40.8355 14.7131 40.3411C15.4193 39.8326 15.9702 39.197 16.3798 38.406L21.2106 41.1038C20.7021 42.2762 19.9676 43.2932 19.0071 44.1266C18.0466 44.9741 16.959 45.6097 15.7583 46.0476C14.5577 46.4855 13.3006 46.7115 12.0293 46.7115H12.0152Z" fill="#A7F797"/>
<path d="M32.4541 46.7115C30.8297 46.7115 29.3183 46.429 27.9341 45.864C26.5498 45.299 25.3351 44.508 24.304 43.491C23.2728 42.474 22.4677 41.2875 21.9027 39.9032C21.3377 38.519 21.0552 37.0358 21.0552 35.4397C21.0552 33.8436 21.3377 32.3463 21.9027 30.9762C22.4677 29.592 23.2728 28.4055 24.304 27.3885C25.3351 26.3715 26.5498 25.5805 27.9341 25.0155C29.3183 24.4505 30.8297 24.168 32.4541 24.168C34.0785 24.168 35.604 24.4505 36.9882 25.0155C38.3725 25.5805 39.5731 26.3715 40.6042 27.3885C41.6353 28.4055 42.4405 29.592 43.0055 30.9762C43.5705 32.3605 43.853 33.8436 43.853 35.4397C43.853 37.0358 43.5705 38.5331 43.0055 39.9032C42.4405 41.2875 41.6353 42.474 40.6042 43.491C39.5731 44.508 38.3583 45.299 36.9882 45.864C35.6181 46.429 34.0926 46.7115 32.4541 46.7115ZM32.4541 41.1038C33.2027 41.1038 33.8948 40.9626 34.5587 40.666C35.2085 40.3835 35.7735 39.9738 36.2537 39.4653C36.734 38.9568 37.1012 38.3495 37.3696 37.6573C37.638 36.9652 37.7651 36.2166 37.7651 35.4256C37.7651 34.6346 37.638 33.8718 37.3696 33.1797C37.1012 32.5017 36.734 31.8943 36.2537 31.3858C35.7735 30.8773 35.2085 30.4677 34.5587 30.1852C33.909 29.9027 33.2027 29.7473 32.4541 29.7473C31.7055 29.7473 31.0133 29.8886 30.3495 30.1852C29.6997 30.4677 29.1347 30.8773 28.6545 31.3858C28.1742 31.8943 27.807 32.5017 27.5386 33.1797C27.2702 33.8577 27.1431 34.6063 27.1431 35.4256C27.1431 36.2448 27.2702 36.9652 27.5386 37.6573C27.807 38.3495 28.1742 38.9568 28.6545 39.4653C29.1347 39.9738 29.6997 40.3835 30.3495 40.666C30.9992 40.9485 31.7055 41.1038 32.4541 41.1038Z" fill="#A7F797"/>
<path d="M52.0172 24.606V40.7791H61.5657V46.2313H51.2121C49.39 46.2313 48.0905 45.7793 47.2853 44.8895C46.4802 43.9855 46.0847 42.7848 46.0847 41.2735V24.6201H52.0172V24.606Z" fill="#A7F797"/>
<path d="M75.493 41.0898C75.493 41.8808 75.3517 42.6012 75.0551 43.2368C74.7585 43.8724 74.363 44.4233 73.8827 44.8753C73.3883 45.3273 72.8233 45.6804 72.1736 45.9206C71.5238 46.1607 70.8458 46.2878 70.1396 46.2878C69.4333 46.2878 68.7553 46.1607 68.1056 45.9206C67.4558 45.6804 66.8908 45.3273 66.3965 44.8753C65.9021 44.4233 65.5066 43.8724 65.2241 43.2368C64.9275 42.6012 64.7862 41.8808 64.7862 41.0898C64.7862 40.2988 64.9275 39.5643 65.2241 38.9287C65.5207 38.2931 65.9162 37.7422 66.3965 37.2902C66.8908 36.8382 67.4558 36.4851 68.1056 36.2449C68.7553 36.0048 69.4333 35.8777 70.1396 35.8777C70.8458 35.8777 71.5238 36.0048 72.1736 36.2449C72.8233 36.4851 73.3883 36.8382 73.8827 37.2902C74.3771 37.7422 74.7726 38.2931 75.0551 38.9287C75.3517 39.5643 75.493 40.2847 75.493 41.0898ZM74.0663 41.0898C74.0663 40.4966 73.9675 39.9457 73.7556 39.4513C73.5578 38.9428 73.2753 38.5191 72.9222 38.1518C72.5691 37.7846 72.1595 37.5021 71.6792 37.3043C71.199 37.1066 70.6905 36.9936 70.1396 36.9936C69.5887 36.9936 69.0943 37.0924 68.6141 37.3043C68.1338 37.5021 67.7242 37.7987 67.3711 38.1518C67.018 38.5049 66.7355 38.9428 66.5236 39.4513C66.3117 39.9457 66.2128 40.4966 66.2128 41.0898C66.2128 41.6831 66.3117 42.2339 66.5236 42.7283C66.7355 43.2368 67.018 43.6606 67.3711 44.0278C67.7242 44.3951 68.1338 44.6776 68.6141 44.8753C69.0943 45.0872 69.6028 45.1861 70.1396 45.1861C70.6763 45.1861 71.199 45.0872 71.6792 44.8753C72.1595 44.6776 72.5691 44.3809 72.9222 44.0278C73.2753 43.6747 73.5578 43.2368 73.7556 42.7283C73.9533 42.2339 74.0663 41.6831 74.0663 41.0898ZM67.3993 41.9514H68.5293C68.5717 42.2904 68.7271 42.5447 68.9813 42.7424C69.2356 42.9402 69.5463 43.0391 69.9418 43.0391C70.1961 43.0391 70.4221 42.9826 70.6198 42.8837C70.8176 42.7707 71.0012 42.6294 71.1425 42.4458C71.2837 42.2622 71.3967 42.0503 71.4815 41.8102C71.5662 41.5701 71.5945 41.3017 71.5945 41.0333C71.5945 40.4542 71.4532 39.9739 71.1707 39.6067C70.8882 39.2394 70.4927 39.0558 69.956 39.0558C69.5887 39.0558 69.278 39.1547 69.0237 39.3383C68.7695 39.5219 68.6 39.7762 68.5152 40.1011H67.4276C67.47 39.7479 67.5688 39.4372 67.7242 39.1688C67.8796 38.9004 68.0632 38.6744 68.2751 38.4908C68.5011 38.3072 68.7553 38.1801 69.0378 38.0812C69.3203 37.9823 69.6311 37.9399 69.956 37.9399C70.4221 37.9399 70.8317 38.0247 71.199 38.1801C71.5662 38.3354 71.877 38.5614 72.1312 38.8298C72.3855 39.1123 72.5832 39.4372 72.7103 39.8186C72.8375 40.1999 72.9081 40.6096 72.9081 41.0616C72.9081 41.5136 72.8375 41.9091 72.6962 42.2763C72.555 42.6577 72.3431 42.9826 72.0888 43.2651C71.8346 43.5476 71.5097 43.7594 71.1425 43.9148C70.7752 44.0702 70.3656 44.1549 69.9136 44.1549C69.6028 44.1549 69.3062 44.1126 69.0237 44.0137C68.7412 43.9148 68.487 43.7736 68.261 43.5758C68.035 43.3781 67.8372 43.1521 67.696 42.8837C67.5406 42.6153 67.4417 42.3046 67.3852 41.9514H67.3993Z" fill="#A7F797"/>
</svg>
