<svg width="75" height="57" viewBox="0 0 75 57" fill="none" xmlns="http://www.w3.org/2000/svg">
<path d="M8.52038 7.53432L11.9245 20.1903C12.1646 21.1084 12.6449 21.7864 13.3653 22.2385C14.0856 22.6905 14.8908 22.9165 15.7665 22.9165C16.6423 22.9165 17.4615 22.6763 18.1536 22.2102C18.8458 21.7441 19.326 21.0237 19.6085 20.0632L23.0268 7.5767L24.7641 22.8176H30.7531L28.1965 4.76582C27.9988 3.43807 27.5044 2.4352 26.671 1.7572C25.8518 1.0792 24.8065 0.726074 23.5494 0.726074C22.3911 0.726074 21.3741 1.00857 20.4843 1.55945C19.5944 2.11032 18.987 2.98607 18.6904 4.1867L15.7806 15.5573L12.8426 4.08782C12.546 2.8872 11.9669 2.0397 11.1053 1.51707C10.2436 0.994449 9.24076 0.726074 8.11076 0.726074C6.81126 0.726074 5.73776 1.06507 4.89026 1.72895C4.04276 2.40695 3.52013 3.38157 3.30826 4.65282L0.426758 22.8176H6.44401L8.50626 7.54845L8.52038 7.53432Z" fill="#0D2B59"/>
<path d="M62.8027 16.2777H72.1534V10.8396H62.8027V6.64445H74.9502V1.20633H62.0117C60.2037 1.20633 58.89 1.65833 58.0849 2.5482C57.2798 3.43808 56.8843 4.65283 56.8843 6.1642V22.8035H62.8027V16.2777Z" fill="#0D2B59"/>
<path d="M35.9372 20.0208C36.9683 21.052 38.183 21.843 39.5532 22.4221C40.9233 23.0012 42.4347 23.2837 44.0449 23.2837C45.4998 23.2837 46.8275 23.1001 48.0564 22.7187C49.2853 22.3515 50.3588 21.8288 51.291 21.165C52.2233 20.5011 52.9578 19.7525 53.5087 18.8908V10.8255H42.0815L42.8867 16.2636H47.7739V16.9416C47.4773 17.2241 47.1524 17.4218 46.7852 17.5631C46.4179 17.7043 46.0224 17.8032 45.5704 17.8456C45.1184 17.9021 44.6099 17.9303 44.0308 17.9303C43.2257 17.9303 42.477 17.8032 41.8273 17.5348C41.1634 17.2665 40.6125 16.8851 40.1464 16.3625C39.6944 15.854 39.3413 15.2325 39.087 14.5262C38.8469 13.8058 38.7198 13.0007 38.7198 12.1108C38.7198 11.221 38.8328 10.4723 39.0729 9.78021C39.313 9.08808 39.652 8.46658 40.104 7.95808C40.556 7.44958 41.0787 7.03996 41.7002 6.75746C42.3217 6.47496 43.0138 6.31958 43.7765 6.31958C44.6099 6.31958 45.3162 6.43258 45.8953 6.65858C46.4744 6.88458 46.9547 7.19533 47.3502 7.60496C47.7457 8.01458 48.0847 8.49483 48.3954 9.04571L53.2262 6.36196C52.7177 5.14721 51.9832 4.11608 51.0227 3.28271C50.0622 2.44933 48.9745 1.82783 47.7739 1.38996C46.5733 0.966208 45.3303 0.754333 44.0449 0.754333C42.4205 0.754333 40.9233 1.03683 39.539 1.61596C38.1548 2.19508 36.94 2.98608 35.9089 4.01721C34.8778 5.04833 34.0727 6.23483 33.5077 7.60496C32.9427 8.97508 32.6602 10.4441 32.6602 12.0261C32.6602 13.6081 32.9427 15.0771 33.5218 16.4472C34.1009 17.8173 34.906 19.0038 35.9372 20.035V20.0208Z" fill="#0D2B59"/>
<path d="M1.86754 51.8868L2.94104 55.0367L3.95804 51.8868H5.37054V56.4774H4.42417V53.2287L3.29417 56.4774H2.51729L1.38729 53.2569V56.4774H0.440918V51.8868H1.86754Z" fill="#0D2B59"/>
<path d="M9.69266 51.8868V52.7343H7.27729V53.7231H9.49491V54.4999H7.27729V55.6299H9.74916V56.4774H6.27441V51.8868H9.70679H9.69266Z" fill="#0D2B59"/>
<path d="M13.1534 56.4492C12.9274 56.5339 12.7155 56.5904 12.4895 56.5904C12.1364 56.5904 11.8257 56.5339 11.5432 56.4068C11.2607 56.2797 11.0205 56.1102 10.8369 55.8983C10.6392 55.6864 10.4979 55.4322 10.399 55.1497C10.3002 54.8672 10.2437 54.5423 10.2437 54.2174C10.2437 53.8926 10.3002 53.5536 10.399 53.2569C10.4979 52.9603 10.6533 52.7061 10.8369 52.4942C11.0347 52.2823 11.2607 52.0987 11.5432 51.9857C11.8257 51.8586 12.1364 51.8021 12.4895 51.8021C12.7297 51.8021 12.9557 51.8303 13.1675 51.9151C13.3935 51.9857 13.5913 52.0846 13.7608 52.2258C13.9444 52.3671 14.0857 52.5366 14.1987 52.7343C14.3117 52.9321 14.3823 53.1722 14.4105 53.4264H13.45C13.3935 53.1722 13.2805 52.9744 13.0969 52.8473C12.9133 52.7202 12.7155 52.6496 12.4754 52.6496C12.2494 52.6496 12.0517 52.6919 11.8963 52.7767C11.7409 52.8614 11.6138 52.9886 11.5149 53.1298C11.416 53.2711 11.3454 53.4406 11.303 53.6383C11.2607 53.8219 11.2324 54.0197 11.2324 54.2174C11.2324 54.4152 11.2607 54.5988 11.303 54.7824C11.3454 54.9661 11.416 55.1356 11.5149 55.2768C11.6138 55.4181 11.7409 55.5452 11.8963 55.6299C12.0517 55.7147 12.2494 55.7571 12.4754 55.7571C12.8144 55.7571 13.0687 55.6723 13.2523 55.5028C13.4359 55.3333 13.5348 55.0932 13.5772 54.7683H12.5602V54.0197H14.4812V56.5057H13.8455L13.7467 55.9831C13.563 56.2091 13.3653 56.3786 13.1534 56.4633V56.4492Z" fill="#0D2B59"/>
<path d="M17.5888 51.8868L19.2979 56.4774H18.2527L17.8996 55.4605H16.1904L15.8373 56.4774H14.8203L16.5577 51.8868H17.5888ZM17.6453 54.7118L17.0662 53.031L16.4729 54.7118H17.6594H17.6453ZM17.2357 50.3472L16.5577 51.4772H17.1933L18.2386 50.3472H17.2357Z" fill="#0D2B59"/>
<path d="M22.928 51.8868V52.7343H20.7104V53.7937H22.6314V54.5706H20.7104V56.4633H19.7075V51.8727H22.928V51.8868Z" fill="#0D2B59"/>
<path d="M23.4645 53.2569C23.5633 52.9603 23.7187 52.7061 23.9023 52.4942C24.1001 52.2823 24.3261 52.0987 24.6086 51.9857C24.8911 51.8586 25.2018 51.8021 25.555 51.8021C25.9081 51.8021 26.233 51.8586 26.5013 51.9857C26.7838 52.1128 27.0098 52.2823 27.2076 52.4942C27.4053 52.7202 27.5466 52.9744 27.6455 53.2569C27.7443 53.5394 27.8008 53.8643 27.8008 54.2174C27.8008 54.5706 27.7443 54.8672 27.6455 55.1497C27.5466 55.4322 27.3912 55.6864 27.2076 55.8983C27.0098 56.1102 26.7838 56.2797 26.5013 56.4068C26.2188 56.5339 25.9081 56.5904 25.555 56.5904C25.2018 56.5904 24.8911 56.5339 24.6086 56.4068C24.3261 56.2797 24.086 56.1102 23.9023 55.8983C23.7046 55.6864 23.5633 55.4322 23.4645 55.1497C23.3656 54.8672 23.3091 54.5423 23.3091 54.2174C23.3091 53.8926 23.3656 53.5536 23.4645 53.2569ZM24.3967 54.7683C24.4391 54.9519 24.5097 55.1214 24.6086 55.2627C24.7075 55.4039 24.8346 55.5311 24.99 55.6158C25.1453 55.7006 25.3431 55.7429 25.5691 55.7429C25.7951 55.7429 25.9928 55.7006 26.1482 55.6158C26.3036 55.5311 26.4307 55.4181 26.5296 55.2627C26.6285 55.1214 26.6991 54.9519 26.7415 54.7683C26.7838 54.5847 26.8121 54.4011 26.8121 54.2033C26.8121 54.0056 26.7838 53.8078 26.7415 53.6242C26.6991 53.4406 26.6285 53.2711 26.5296 53.1157C26.4307 52.9744 26.3036 52.8473 26.1482 52.7626C25.9928 52.6778 25.7951 52.6354 25.5691 52.6354C25.3431 52.6354 25.1453 52.6778 24.99 52.7626C24.8346 52.8473 24.7075 52.9744 24.6086 53.1157C24.5097 53.2569 24.4391 53.4264 24.3967 53.6242C24.3543 53.8078 24.3261 54.0056 24.3261 54.2033C24.3261 54.4011 24.3543 54.5847 24.3967 54.7683Z" fill="#0D2B59"/>
<path d="M29.5102 51.8868L31.4171 54.9661V51.8868H32.3634V56.4774H31.3606L29.4537 53.4123V56.4774H28.5073V51.8868H29.5102Z" fill="#0D2B59"/>
<path d="M33.2252 53.2569C33.3241 52.9603 33.4794 52.7061 33.6631 52.4942C33.8608 52.2823 34.0868 52.0987 34.3693 51.9857C34.6518 51.8586 34.9626 51.8021 35.3157 51.8021C35.6688 51.8021 35.9937 51.8586 36.2621 51.9857C36.5446 52.1128 36.7706 52.2823 36.9683 52.4942C37.1661 52.7202 37.3073 52.9744 37.4062 53.2569C37.5051 53.5394 37.5616 53.8643 37.5616 54.2174C37.5616 54.5706 37.5051 54.8672 37.4062 55.1497C37.3073 55.4322 37.1519 55.6864 36.9683 55.8983C36.7706 56.1102 36.5446 56.2797 36.2621 56.4068C35.9796 56.5339 35.6688 56.5904 35.3157 56.5904C34.9626 56.5904 34.6518 56.5339 34.3693 56.4068C34.0868 56.2797 33.8467 56.1102 33.6631 55.8983C33.4653 55.6864 33.3241 55.4322 33.2252 55.1497C33.1263 54.8672 33.0698 54.5423 33.0698 54.2174C33.0698 53.8926 33.1263 53.5536 33.2252 53.2569ZM34.1433 54.7683C34.1857 54.9519 34.2563 55.1214 34.3552 55.2627C34.4541 55.4039 34.5812 55.5311 34.7366 55.6158C34.8919 55.7006 35.0897 55.7429 35.3157 55.7429C35.5417 55.7429 35.7394 55.7006 35.8948 55.6158C36.0502 55.5311 36.1773 55.4181 36.2762 55.2627C36.3751 55.1214 36.4457 54.9519 36.4881 54.7683C36.5304 54.5847 36.5587 54.4011 36.5587 54.2033C36.5587 54.0056 36.5304 53.8078 36.4881 53.6242C36.4457 53.4406 36.3751 53.2711 36.2762 53.1157C36.1773 52.9744 36.0502 52.8473 35.8948 52.7626C35.7394 52.6778 35.5417 52.6354 35.3157 52.6354C35.0897 52.6354 34.8919 52.6778 34.7366 52.7626C34.5812 52.8473 34.4541 52.9744 34.3552 53.1157C34.2563 53.2569 34.1857 53.4264 34.1433 53.6242C34.1009 53.8078 34.0727 54.0056 34.0727 54.2033C34.0727 54.4011 34.1009 54.5847 34.1433 54.7683Z" fill="#0D2B59"/>
<path d="M41.2055 53.1157C41.149 53.0168 41.0643 52.9321 40.9795 52.8614C40.8948 52.7908 40.7818 52.7343 40.6688 52.6919C40.5558 52.6496 40.4428 52.6354 40.3157 52.6354C40.0897 52.6354 39.8919 52.6778 39.7365 52.7626C39.5812 52.8473 39.454 52.9744 39.3552 53.1157C39.2563 53.2569 39.1857 53.4264 39.1433 53.6242C39.1009 53.8078 39.0727 54.0056 39.0727 54.2033C39.0727 54.4011 39.1009 54.5847 39.1433 54.7683C39.1857 54.9519 39.2563 55.1214 39.3552 55.2627C39.454 55.4039 39.5812 55.5311 39.7365 55.6158C39.8919 55.7006 40.0897 55.7429 40.3157 55.7429C40.6264 55.7429 40.8665 55.6441 41.036 55.4604C41.2055 55.2768 41.3185 55.0226 41.3468 54.7118H42.3214C42.2932 54.9943 42.2367 55.2627 42.1237 55.4887C42.0107 55.7147 41.8694 55.9124 41.6999 56.0819C41.5304 56.2514 41.3185 56.3644 41.0784 56.4492C40.8383 56.5339 40.584 56.5763 40.3015 56.5763C39.9484 56.5763 39.6377 56.5198 39.3552 56.3927C39.0727 56.2656 38.8325 56.0961 38.6489 55.8842C38.4512 55.6723 38.3099 55.4181 38.211 55.1356C38.1122 54.8531 38.0557 54.5282 38.0557 54.2033C38.0557 53.8784 38.1122 53.5394 38.211 53.2428C38.3099 52.9462 38.4653 52.6919 38.6489 52.4801C38.8467 52.2682 39.0727 52.0846 39.3552 51.9716C39.6377 51.8444 39.9484 51.7879 40.3015 51.7879C40.5558 51.7879 40.7959 51.8303 41.0219 51.9009C41.2479 51.9716 41.4457 52.0846 41.6293 52.2258C41.8129 52.3671 41.9542 52.5366 42.0672 52.7484C42.1802 52.9603 42.2508 53.1863 42.2932 53.4547H41.3185C41.3044 53.3417 41.262 53.2287 41.2055 53.1298V53.1157Z" fill="#0D2B59"/>
<path d="M42.9855 53.2569C43.0843 52.9603 43.2397 52.7061 43.4233 52.4942C43.6211 52.2823 43.8471 52.0987 44.1296 51.9857C44.4121 51.8586 44.7228 51.8021 45.076 51.8021C45.4291 51.8021 45.754 51.8586 46.0223 51.9857C46.3048 52.1128 46.5308 52.2823 46.7286 52.4942C46.9263 52.7202 47.0676 52.9744 47.1665 53.2569C47.2653 53.5394 47.3218 53.8643 47.3218 54.2174C47.3218 54.5706 47.2653 54.8672 47.1665 55.1497C47.0676 55.4322 46.9122 55.6864 46.7286 55.8983C46.5308 56.1102 46.3048 56.2797 46.0223 56.4068C45.7398 56.5339 45.4291 56.5904 45.076 56.5904C44.7228 56.5904 44.4121 56.5339 44.1296 56.4068C43.8471 56.2797 43.607 56.1102 43.4233 55.8983C43.2256 55.6864 43.0843 55.4322 42.9855 55.1497C42.8866 54.8672 42.8301 54.5423 42.8301 54.2174C42.8301 53.8926 42.8866 53.5536 42.9855 53.2569ZM43.9036 54.7683C43.946 54.9519 44.0166 55.1214 44.1155 55.2627C44.2143 55.4039 44.3415 55.5311 44.4968 55.6158C44.6522 55.7006 44.85 55.7429 45.076 55.7429C45.302 55.7429 45.4997 55.7006 45.6551 55.6158C45.8105 55.5311 45.9376 55.4181 46.0365 55.2627C46.1353 55.1214 46.206 54.9519 46.2483 54.7683C46.2907 54.5847 46.319 54.4011 46.319 54.2033C46.319 54.0056 46.2907 53.8078 46.2483 53.6242C46.206 53.4406 46.1353 53.2711 46.0365 53.1157C45.9376 52.9744 45.8105 52.8473 45.6551 52.7626C45.4997 52.6778 45.302 52.6354 45.076 52.6354C44.85 52.6354 44.6522 52.6778 44.4968 52.7626C44.3415 52.8473 44.2143 52.9744 44.1155 53.1157C44.0166 53.2569 43.946 53.4264 43.9036 53.6242C43.8612 53.8078 43.833 54.0056 43.833 54.2033C43.833 54.4011 43.8612 54.5847 43.9036 54.7683Z" fill="#0D2B59"/>
<path d="M49.0307 51.8868V55.6299H51.2624V56.4774H48.0137V51.8868H49.0166H49.0307Z" fill="#0D2B59"/>
<path d="M55.26 51.8868V52.7343H52.8447V53.7231H55.0623V54.4999H52.8447V55.6299H55.3165V56.4774H51.8418V51.8868H55.2742H55.26Z" fill="#0D2B59"/>
<path d="M58.9467 53.1157C58.8902 53.0168 58.8055 52.9321 58.7207 52.8614C58.636 52.7908 58.523 52.7343 58.41 52.6919C58.297 52.6496 58.184 52.6354 58.0569 52.6354C57.8309 52.6354 57.6331 52.6778 57.4777 52.7626C57.3224 52.8473 57.1952 52.9744 57.0964 53.1157C56.9975 53.2569 56.9269 53.4264 56.8845 53.6242C56.8421 53.8078 56.8139 54.0056 56.8139 54.2033C56.8139 54.4011 56.8421 54.5847 56.8845 54.7683C56.9269 54.9519 56.9975 55.1214 57.0964 55.2627C57.1952 55.4039 57.3224 55.5311 57.4777 55.6158C57.6331 55.7006 57.8309 55.7429 58.0569 55.7429C58.3676 55.7429 58.6078 55.6441 58.7773 55.4604C58.9468 55.2768 59.0597 55.0226 59.088 54.7118H60.0626C60.0344 54.9943 59.9779 55.2627 59.8649 55.4887C59.7519 55.7147 59.6106 55.9124 59.4411 56.0819C59.2716 56.2514 59.0597 56.3644 58.8196 56.4492C58.5795 56.5339 58.3253 56.5763 58.0428 56.5763C57.6896 56.5763 57.3789 56.5198 57.0964 56.3927C56.8139 56.2656 56.5737 56.0961 56.3901 55.8842C56.1924 55.6723 56.0511 55.4181 55.9523 55.1356C55.8534 54.8531 55.7969 54.5282 55.7969 54.2033C55.7969 53.8784 55.8534 53.5394 55.9523 53.2428C56.0511 52.9462 56.2065 52.6919 56.3901 52.4801C56.5879 52.2682 56.8139 52.0846 57.0964 51.9716C57.3789 51.8444 57.6896 51.7879 58.0428 51.7879C58.297 51.7879 58.5371 51.8303 58.7631 51.9009C58.9891 51.9716 59.1869 52.0846 59.3705 52.2258C59.5541 52.3671 59.6954 52.5366 59.8084 52.7484C59.9214 52.9603 59.992 53.1863 60.0344 53.4547H59.0598C59.0456 53.3417 59.0032 53.2287 58.9467 53.1298V53.1157Z" fill="#0D2B59"/>
<path d="M60.4014 52.7343V51.8868H64.1586V52.7343H62.7885V56.4774H61.7856V52.7343H60.4155H60.4014Z" fill="#0D2B59"/>
<path d="M65.6982 51.8868V56.4774H64.6953V51.8868H65.6982Z" fill="#0D2B59"/>
<path d="M67.5769 56.4774L66.0938 51.8868H67.1249L68.1419 55.1073L69.173 51.8868H70.2182L68.6928 56.4774H67.5627H67.5769Z" fill="#0D2B59"/>
<path d="M70.5856 53.2569C70.6844 52.9603 70.8398 52.7061 71.0234 52.4942C71.2212 52.2823 71.4472 52.0987 71.7297 51.9857C72.0122 51.8586 72.3229 51.8021 72.6761 51.8021C73.0292 51.8021 73.354 51.8586 73.6224 51.9857C73.9049 52.1128 74.1309 52.2823 74.3287 52.4942C74.5264 52.7202 74.6677 52.9744 74.7666 53.2569C74.8654 53.5394 74.9219 53.8643 74.9219 54.2174C74.9219 54.5706 74.8654 54.8672 74.7666 55.1497C74.6677 55.4322 74.5123 55.6864 74.3287 55.8983C74.1309 56.1102 73.9049 56.2797 73.6224 56.4068C73.3399 56.5339 73.0292 56.5904 72.6761 56.5904C72.3229 56.5904 72.0122 56.5339 71.7297 56.4068C71.4472 56.2797 71.207 56.1102 71.0234 55.8983C70.8257 55.6864 70.6844 55.4322 70.5856 55.1497C70.4867 54.8672 70.4302 54.5423 70.4302 54.2174C70.4302 53.8926 70.4867 53.5536 70.5856 53.2569ZM71.5037 54.7683C71.546 54.9519 71.6167 55.1214 71.7156 55.2627C71.8144 55.4039 71.9416 55.5311 72.0969 55.6158C72.2523 55.7006 72.4501 55.7429 72.6761 55.7429C72.9021 55.7429 73.0998 55.7006 73.2552 55.6158C73.4106 55.5311 73.5377 55.4181 73.6366 55.2627C73.7354 55.1214 73.806 54.9519 73.8484 54.7683C73.8908 54.5847 73.919 54.4011 73.919 54.2033C73.919 54.0056 73.8908 53.8078 73.8484 53.6242C73.806 53.4406 73.7354 53.2711 73.6366 53.1157C73.5377 52.9744 73.4106 52.8473 73.2552 52.7626C73.0998 52.6778 72.9021 52.6354 72.6761 52.6354C72.4501 52.6354 72.2523 52.6778 72.0969 52.7626C71.9416 52.8473 71.8144 52.9744 71.7156 53.1157C71.6167 53.2569 71.546 53.4264 71.5037 53.6242C71.4613 53.8078 71.433 54.0056 71.433 54.2033C71.433 54.4011 71.4613 54.5847 71.5037 54.7683Z" fill="#0D2B59"/>
<path d="M11.5151 47.2114C9.89071 47.2114 8.39346 46.9289 7.00921 46.3498C5.62496 45.7707 4.42434 44.9656 3.39321 43.9486C2.36209 42.9174 1.55696 41.7309 0.977836 40.3608C0.398711 38.9907 0.116211 37.5217 0.116211 35.9397C0.116211 34.3577 0.398711 32.8887 0.977836 31.5186C1.55696 30.1484 2.36209 28.9619 3.39321 27.9308C4.42434 26.8997 5.63909 26.1087 7.00921 25.5296C8.39346 24.9504 9.89071 24.6679 11.5151 24.6679C12.8005 24.6679 14.0435 24.8939 15.2441 25.3177C16.4447 25.7556 17.5323 26.3912 18.4928 27.2246C19.4533 28.0579 20.1878 29.0749 20.6963 30.2614L15.8656 32.9452C15.4136 32.1401 14.8486 31.4762 14.1706 30.9959C13.4926 30.5016 12.518 30.2614 11.2608 30.2614C10.4981 30.2614 9.79184 30.4027 9.18446 30.6711C8.56296 30.9536 8.02621 31.3349 7.58834 31.8434C7.13634 32.3519 6.79734 32.9452 6.55721 33.6373C6.31709 34.3294 6.20409 35.0922 6.20409 35.9256C6.20409 36.7589 6.31709 37.5217 6.55721 38.2138C6.79734 38.9059 7.12221 39.4992 7.56009 40.0077C7.99796 40.5162 8.53471 40.8976 9.15621 41.1801C9.79184 41.4626 10.484 41.5897 11.2608 41.5897C12.518 41.5897 13.5067 41.3354 14.213 40.8411C14.9192 40.3326 15.4701 39.6969 15.8797 38.9059L20.7105 41.6038C20.202 42.7762 19.4675 43.7932 18.507 44.6266C17.5465 45.4741 16.4588 46.1097 15.2582 46.5476C14.0576 46.9854 12.8005 47.2114 11.5292 47.2114H11.5151Z" fill="#0D2B59"/>
<path d="M31.9541 47.2114C30.3297 47.2114 28.8183 46.9289 27.4341 46.3639C26.0498 45.7989 24.8351 45.0079 23.8039 43.9909C22.7728 42.9739 21.9677 41.7874 21.4027 40.4032C20.8377 39.0189 20.5552 37.5358 20.5552 35.9397C20.5552 34.3436 20.8377 32.8463 21.4027 31.4762C21.9677 30.0919 22.7728 28.9054 23.8039 27.8884C24.8351 26.8714 26.0498 26.0804 27.4341 25.5154C28.8183 24.9504 30.3297 24.6679 31.9541 24.6679C33.5784 24.6679 35.1039 24.9504 36.4882 25.5154C37.8724 26.0804 39.0731 26.8714 40.1042 27.8884C41.1353 28.9054 41.9404 30.0919 42.5054 31.4762C43.0704 32.8604 43.3529 34.3436 43.3529 35.9397C43.3529 37.5358 43.0704 39.0331 42.5054 40.4032C41.9404 41.7874 41.1353 42.9739 40.1042 43.9909C39.0731 45.0079 37.8583 45.7989 36.4882 46.3639C35.1181 46.9289 33.5926 47.2114 31.9541 47.2114ZM31.9541 41.6038C32.7027 41.6038 33.3948 41.4626 34.0587 41.1659C34.7084 40.8834 35.2734 40.4738 35.7537 39.9653C36.2339 39.4568 36.6012 38.8494 36.8696 38.1573C37.1379 37.4652 37.2651 36.7166 37.2651 35.9256C37.2651 35.1346 37.1379 34.3718 36.8696 33.6797C36.6012 33.0017 36.2339 32.3943 35.7537 31.8858C35.2734 31.3773 34.7084 30.9677 34.0587 30.6852C33.4089 30.4027 32.7027 30.2473 31.9541 30.2473C31.2054 30.2473 30.5133 30.3886 29.8494 30.6852C29.1997 30.9677 28.6347 31.3773 28.1544 31.8858C27.6742 32.3943 27.3069 33.0017 27.0386 33.6797C26.7702 34.3577 26.6431 35.1063 26.6431 35.9256C26.6431 36.7448 26.7702 37.4652 27.0386 38.1573C27.3069 38.8494 27.6742 39.4568 28.1544 39.9653C28.6347 40.4738 29.1997 40.8834 29.8494 41.1659C30.4992 41.4484 31.2054 41.6038 31.9541 41.6038Z" fill="#0D2B59"/>
<path d="M51.517 25.1058V41.2789H61.0655V46.7312H50.7118C48.8897 46.7312 47.5902 46.2792 46.7851 45.3893C45.98 44.4853 45.5845 43.2847 45.5845 41.7733V25.1199H51.517V25.1058Z" fill="#0D2B59"/>
<path d="M74.9929 41.5897C74.9929 42.3807 74.8516 43.1011 74.555 43.7367C74.2584 44.3723 73.8629 44.9232 73.3826 45.3752C72.8883 45.8272 72.3233 46.1803 71.6735 46.4204C71.0238 46.6606 70.3458 46.7877 69.6395 46.7877C68.9333 46.7877 68.2553 46.6606 67.6055 46.4204C66.9558 46.1803 66.3908 45.8272 65.8964 45.3752C65.402 44.9232 65.0065 44.3723 64.724 43.7367C64.4274 43.1011 64.2861 42.3807 64.2861 41.5897C64.2861 40.7987 64.4274 40.0642 64.724 39.4286C65.0206 38.7929 65.4161 38.2421 65.8964 37.7901C66.3908 37.3381 66.9558 36.9849 67.6055 36.7448C68.2553 36.5047 68.9333 36.3776 69.6395 36.3776C70.3458 36.3776 71.0238 36.5047 71.6735 36.7448C72.3233 36.9849 72.8883 37.3381 73.3826 37.7901C73.877 38.2421 74.2725 38.7929 74.555 39.4286C74.8516 40.0642 74.9929 40.7846 74.9929 41.5897ZM73.5663 41.5897C73.5663 40.9964 73.4674 40.4456 73.2555 39.9512C73.0578 39.4427 72.7753 39.0189 72.4221 38.6517C72.069 38.2844 71.6594 38.0019 71.1791 37.8042C70.6989 37.6064 70.1904 37.4934 69.6395 37.4934C69.0886 37.4934 68.5943 37.5923 68.114 37.8042C67.6338 38.0019 67.2241 38.2986 66.871 38.6517C66.5179 39.0048 66.2354 39.4427 66.0235 39.9512C65.8116 40.4456 65.7128 40.9964 65.7128 41.5897C65.7128 42.1829 65.8116 42.7338 66.0235 43.2282C66.2354 43.7367 66.5179 44.1604 66.871 44.5277C67.2241 44.8949 67.6338 45.1774 68.114 45.3752C68.5943 45.5871 69.1028 45.6859 69.6395 45.6859C70.1763 45.6859 70.6989 45.5871 71.1791 45.3752C71.6594 45.1774 72.069 44.8808 72.4221 44.5277C72.7753 44.1746 73.0578 43.7367 73.2555 43.2282C73.4533 42.7338 73.5663 42.1829 73.5663 41.5897ZM66.8993 42.4513H68.0293C68.0716 42.7903 68.227 43.0446 68.4813 43.2423C68.7355 43.4401 69.0463 43.5389 69.4418 43.5389C69.696 43.5389 69.922 43.4824 70.1198 43.3836C70.3175 43.2706 70.5011 43.1293 70.6424 42.9457C70.7836 42.7621 70.8966 42.5502 70.9814 42.3101C71.0661 42.0699 71.0944 41.8016 71.0944 41.5332C71.0944 40.9541 70.9531 40.4738 70.6706 40.1066C70.3881 39.7393 69.9926 39.5557 69.4559 39.5557C69.0886 39.5557 68.7779 39.6546 68.5236 39.8382C68.2694 40.0218 68.0999 40.2761 68.0151 40.6009H66.9275C66.9699 40.2478 67.0688 39.9371 67.2241 39.6687C67.3795 39.4003 67.5631 39.1743 67.775 38.9907C68.001 38.8071 68.2553 38.6799 68.5378 38.5811C68.8203 38.4822 69.131 38.4398 69.4559 38.4398C69.922 38.4398 70.3316 38.5246 70.6989 38.6799C71.0661 38.8353 71.3769 39.0613 71.6311 39.3297C71.8854 39.6122 72.0831 39.9371 72.2103 40.3184C72.3374 40.6998 72.408 41.1094 72.408 41.5614C72.408 42.0134 72.3374 42.4089 72.1961 42.7762C72.0549 43.1576 71.843 43.4824 71.5888 43.7649C71.3345 44.0474 71.0096 44.2593 70.6424 44.4147C70.2751 44.5701 69.8655 44.6548 69.4135 44.6548C69.1028 44.6548 68.8061 44.6124 68.5236 44.5136C68.2411 44.4147 67.9869 44.2734 67.7609 44.0757C67.5349 43.8779 67.3371 43.6519 67.1959 43.3836C67.0405 43.1152 66.9416 42.8044 66.8851 42.4513H66.8993Z" fill="#0D2B59"/>
</svg>
