<svg width="75" height="57" viewBox="0 0 75 57" fill="none" xmlns="http://www.w3.org/2000/svg">
<path d="M8.12867 7.3365L11.5469 20.049C11.7871 20.9671 12.2673 21.6593 12.9877 22.1113C13.7222 22.5633 14.5273 22.7893 15.403 22.7893C16.2788 22.7893 17.0981 22.5491 17.8043 22.083C18.4964 21.6169 18.9908 20.8965 19.2733 19.9219L22.7057 7.37888L24.4431 22.6904H30.4603L27.8896 4.55388C27.6918 3.22613 27.1833 2.22325 26.3641 1.53113C25.5448 0.839 24.4995 0.5 23.2283 0.5C22.07 0.5 21.0389 0.7825 20.1349 1.33338C19.2309 1.88425 18.6377 2.77413 18.3269 3.97475L15.403 15.4019L12.4509 3.87588C12.1543 2.67525 11.561 1.81363 10.6994 1.291C9.83779 0.768375 8.83492 0.5 7.6908 0.5C6.37717 0.5 5.30367 0.839 4.45617 1.517C3.60867 2.195 3.07192 3.16963 2.86005 4.455L-0.00732422 22.6904H6.03817L8.11455 7.3365H8.12867Z" fill="#0D2B59"/>
<path d="M62.6795 16.1364H72.0727V10.67H62.6795V6.46075H74.8835V0.980255H61.8744C60.0523 0.980255 58.7387 1.43226 57.9335 2.33626C57.1284 3.24026 56.7329 4.45501 56.7329 5.96638V22.6904H62.6795V16.1364Z" fill="#0D2B59"/>
<path d="M35.6867 19.8936C36.7319 20.9248 37.9325 21.7299 39.3168 22.309C40.701 22.8881 42.2124 23.1706 43.8368 23.1706C45.2917 23.1706 46.6335 22.987 47.8765 22.6056C49.1054 22.2243 50.193 21.7158 51.1253 21.0519C52.0575 20.388 52.8062 19.6253 53.357 18.7636V10.6559H41.8734L42.6785 16.1223H47.594V16.8003C47.2974 17.0828 46.9725 17.2946 46.6053 17.4218C46.238 17.563 45.8284 17.6619 45.3764 17.7043C44.9244 17.7608 44.4159 17.789 43.8368 17.789C43.0175 17.789 42.283 17.6619 41.6192 17.3935C40.9553 17.1251 40.3903 16.7296 39.9242 16.2211C39.458 15.7126 39.1049 15.0911 38.8648 14.3708C38.6247 13.6504 38.4975 12.8453 38.4975 11.9413C38.4975 11.0373 38.6105 10.3028 38.8507 9.5965C39.0908 8.89025 39.4298 8.28288 39.8818 7.76025C40.3338 7.25175 40.8705 6.84213 41.492 6.55963C42.1135 6.27713 42.8057 6.12175 43.5825 6.12175C44.4159 6.12175 45.1222 6.23475 45.7013 6.46075C46.2804 6.68675 46.7607 6.9975 47.1703 7.40713C47.5658 7.81675 47.9189 8.297 48.2155 8.84788L53.0745 6.15C52.566 4.92113 51.8174 3.90413 50.8569 3.05663C49.8964 2.22325 48.8088 1.58763 47.594 1.16388C46.3793 0.74013 45.1363 0.51413 43.8509 0.51413C42.2265 0.51413 40.7152 0.810755 39.3168 1.37575C37.9184 1.95488 36.7037 2.76 35.6725 3.79113C34.6273 4.82225 33.8222 6.02288 33.2572 7.393C32.6922 8.76313 32.4097 10.2463 32.4097 11.8283C32.4097 13.4103 32.6922 14.8934 33.2713 16.2635C33.8504 17.6336 34.6555 18.8343 35.7008 19.8654L35.6867 19.8936Z" fill="#0D2B59"/>
<path d="M24.4431 46.7311H30.4603L27.8896 28.5946C27.6918 27.2669 27.1833 26.264 26.3641 25.5719C25.5448 24.8797 24.4995 24.5407 23.2283 24.5407C22.07 24.5407 21.0389 24.8232 20.1349 25.3741C19.2309 25.9391 18.6377 26.8149 18.3269 28.0155L15.403 39.4426L12.4509 27.9166C12.1543 26.716 11.561 25.8544 10.6994 25.3317C9.83779 24.8091 8.83492 24.5407 7.6908 24.5407C6.37717 24.5407 5.30367 24.8797 4.45617 25.5577C3.60867 26.2357 3.07192 27.2104 2.86005 28.4957L-0.00732422 46.7311H6.03817L8.11455 31.3772L11.5328 44.0897C11.7729 45.0079 12.2532 45.7 12.9735 46.152C13.708 46.604 14.5132 46.83 15.3889 46.83C16.2647 46.83 17.0839 46.5899 17.7902 46.1237C18.4823 45.6576 18.9767 44.9372 19.2592 43.9626L22.6916 31.4196L24.4289 46.7311H24.4431Z" fill="#0D2B59"/>
<path d="M42.8336 29.88C42.9466 29.88 43.0314 29.993 43.0879 30.2049L47.622 46.7311H53.6958L48.1023 28.4675C47.6926 27.1397 46.9864 26.151 45.9976 25.5154C44.9948 24.8656 43.9354 24.5549 42.7913 24.5549C41.6471 24.5549 40.616 24.8797 39.6131 25.5154C38.6103 26.1651 37.904 27.1397 37.4944 28.4675L31.9009 46.7311H37.9746L42.5794 30.2049C42.65 29.993 42.7348 29.88 42.8336 29.88Z" fill="#0D2B59"/>
<path d="M57.0011 43.9344C58.0464 44.9655 59.247 45.7706 60.6312 46.3497C62.0155 46.9289 63.5269 47.2114 65.1513 47.2114C66.6061 47.2114 67.948 47.0277 69.191 46.6464C70.4199 46.265 71.5075 45.7565 72.4397 45.0926C73.372 44.4287 74.1206 43.666 74.6715 42.8044V34.6966H63.1879L63.993 40.163H68.9085V40.841C68.6119 41.1235 68.287 41.3354 67.9197 41.4625C67.5525 41.6037 67.1429 41.7026 66.6909 41.745C66.2389 41.8015 65.7304 41.8297 65.1513 41.8297C64.332 41.8297 63.5975 41.7026 62.9336 41.4342C62.2697 41.1659 61.7047 40.7704 61.2386 40.2619C60.7725 39.7534 60.4194 39.1319 60.1792 38.4115C59.9391 37.6911 59.812 36.886 59.812 35.982C59.812 35.078 59.925 34.3435 60.1651 33.6372C60.4052 32.931 60.7442 32.3236 61.1962 31.801C61.6482 31.2925 62.185 30.8829 62.8065 30.6004C63.428 30.3179 64.1201 30.1625 64.897 30.1625C65.7304 30.1625 66.4366 30.2755 67.0157 30.5015C67.5949 30.7275 68.0751 31.0382 68.4847 31.4479C68.8802 31.8575 69.2334 32.3377 69.53 32.8886L74.389 30.1907C73.8805 28.9619 73.1319 27.9449 72.1714 27.0974C71.2109 26.264 70.1232 25.6284 68.9085 25.2046C67.6937 24.7809 66.4507 24.5549 65.1654 24.5549C63.541 24.5549 62.0296 24.8515 60.6312 25.4165C59.2329 25.9956 58.0181 26.8007 56.987 27.8319C55.9417 28.863 55.1366 30.0636 54.5716 31.4337C54.0066 32.8039 53.7241 34.287 53.7241 35.869C53.7241 37.451 54.0066 38.9341 54.5857 40.3042C55.1649 41.6744 55.97 42.875 57.0152 43.9061L57.0011 43.9344Z" fill="#0D2B59"/>
<path d="M1.92756 51.9574L3.04344 55.2203L4.08869 51.9574H5.55769V56.7034H4.58307V53.3416L3.42482 56.7034H2.61969L1.46144 53.3699V56.7034H0.486816V51.9574H1.95582H1.92756Z" fill="#0D2B59"/>
<path d="M10.0492 51.9574V52.8331H7.53499V53.8501H9.83737V54.6553H7.53499V55.8135H10.0916V56.6893H6.48975V51.9433H10.0492V51.9574Z" fill="#0D2B59"/>
<path d="M13.6228 56.6751C13.3968 56.774 13.1708 56.8164 12.9307 56.8164C12.5635 56.8164 12.2386 56.7458 11.9561 56.6328C11.6595 56.5056 11.4194 56.3361 11.2216 56.1101C11.0239 55.8841 10.8685 55.6299 10.7555 55.3333C10.6425 55.0366 10.6001 54.7118 10.6001 54.3728C10.6001 54.0338 10.6566 53.6948 10.7555 53.384C10.8685 53.0733 11.0097 52.819 11.2216 52.593C11.4335 52.367 11.6595 52.1834 11.9561 52.0563C12.2527 51.9291 12.5776 51.8585 12.9307 51.8585C13.1708 51.8585 13.411 51.9009 13.637 51.9715C13.863 52.0421 14.0749 52.1551 14.2585 52.2964C14.4421 52.4376 14.5975 52.6071 14.7105 52.819C14.8235 53.0309 14.9082 53.271 14.9365 53.5394H13.9336C13.8771 53.271 13.75 53.0733 13.5805 52.9461C13.411 52.819 13.185 52.7484 12.9307 52.7484C12.6906 52.7484 12.4929 52.7908 12.3375 52.8896C12.168 52.9744 12.0409 53.1015 11.942 53.2569C11.8431 53.4123 11.7583 53.5818 11.716 53.7795C11.6736 53.9773 11.6454 54.175 11.6454 54.3869C11.6454 54.5988 11.6736 54.7824 11.716 54.966C11.7583 55.1496 11.8431 55.3191 11.942 55.4745C12.0409 55.6299 12.1821 55.7429 12.3375 55.8418C12.507 55.9265 12.7047 55.983 12.9307 55.983C13.2697 55.983 13.5381 55.8983 13.7358 55.7146C13.9195 55.5451 14.0325 55.2909 14.0607 54.9519H13.0155V54.175H15.0071V56.7458H14.3432L14.2302 56.209C14.0466 56.4491 13.8347 56.6186 13.6087 56.7175L13.6228 56.6751Z" fill="#0D2B59"/>
<path d="M18.2136 51.9574L19.9934 56.7034H18.9057L18.5526 55.644H16.7729L16.4056 56.7034H15.3604L17.1542 51.9574H18.2277H18.2136ZM18.2842 54.8813L17.691 53.1439L17.0695 54.8813H18.2984H18.2842ZM17.8464 50.3613L17.1401 51.5336H17.804L18.8916 50.3613H17.8605H17.8464Z" fill="#0D2B59"/>
<path d="M23.7505 51.9574V52.8331H21.4622V53.9349H23.4539V54.74H21.4622V56.7034H20.417V51.9574H23.7505Z" fill="#0D2B59"/>
<path d="M24.3014 53.3699C24.4144 53.0591 24.5556 52.8049 24.7675 52.5789C24.9794 52.3529 25.2054 52.1693 25.502 52.0421C25.7986 51.915 26.1235 51.8444 26.4766 51.8444C26.8297 51.8444 27.1687 51.915 27.4654 52.0421C27.7479 52.1693 28.0021 52.3529 28.1999 52.5789C28.3976 52.8049 28.553 53.0733 28.6519 53.3699C28.7649 53.6665 28.8072 54.0055 28.8072 54.3586C28.8072 54.7118 28.7507 55.0225 28.6519 55.3191C28.5389 55.6158 28.3976 55.8841 28.1999 56.096C28.0021 56.322 27.762 56.4915 27.4654 56.6186C27.1829 56.7458 26.8439 56.8023 26.4766 56.8023C26.1094 56.8023 25.7845 56.7316 25.502 56.6186C25.2054 56.4915 24.9652 56.322 24.7675 56.096C24.5697 55.87 24.4144 55.6158 24.3014 55.3191C24.1884 55.0225 24.146 54.6976 24.146 54.3586C24.146 54.0196 24.2025 53.6806 24.3014 53.3699ZM25.2619 54.9378C25.3042 55.1214 25.389 55.2909 25.4879 55.4463C25.5867 55.6016 25.728 55.7146 25.8834 55.8135C26.0529 55.8983 26.2506 55.9548 26.4766 55.9548C26.7026 55.9548 26.9145 55.9124 27.0699 55.8135C27.2394 55.7288 27.3665 55.6016 27.4654 55.4463C27.5642 55.2909 27.6349 55.1214 27.6914 54.9378C27.7337 54.7541 27.762 54.5564 27.762 54.3586C27.762 54.1609 27.7337 53.949 27.6914 53.7513C27.649 53.5535 27.5642 53.384 27.4654 53.2286C27.3665 53.0733 27.2252 52.9603 27.0699 52.8614C26.9004 52.7766 26.7026 52.7201 26.4766 52.7201C26.2506 52.7201 26.0387 52.7625 25.8834 52.8614C25.7139 52.9461 25.5867 53.0733 25.4879 53.2286C25.389 53.384 25.3042 53.5535 25.2619 53.7513C25.2195 53.949 25.1912 54.1468 25.1912 54.3586C25.1912 54.5705 25.2195 54.7541 25.2619 54.9378Z" fill="#0D2B59"/>
<path d="M30.5731 51.9574L32.5506 55.1496V51.9574H33.5252V56.7034H32.48L30.5025 53.5253V56.7034H29.5278V51.9574H30.559H30.5731Z" fill="#0D2B59"/>
<path d="M34.4151 53.3699C34.5281 53.0591 34.6694 52.8049 34.8813 52.5789C35.0931 52.3529 35.3192 52.1693 35.6158 52.0421C35.9124 51.915 36.2373 51.8444 36.5904 51.8444C36.9435 51.8444 37.2825 51.915 37.5791 52.0421C37.8616 52.1693 38.1159 52.3529 38.3136 52.5789C38.5114 52.8049 38.6668 53.0733 38.7656 53.3699C38.8786 53.6665 38.921 54.0055 38.921 54.3586C38.921 54.7118 38.8645 55.0225 38.7656 55.3191C38.6526 55.6158 38.5114 55.8841 38.3136 56.096C38.1159 56.322 37.8758 56.4915 37.5791 56.6186C37.2966 56.7458 36.9576 56.8023 36.5904 56.8023C36.2231 56.8023 35.8983 56.7316 35.6158 56.6186C35.3192 56.4915 35.079 56.322 34.8813 56.096C34.6835 55.87 34.5281 55.6158 34.4151 55.3191C34.3021 55.0225 34.2598 54.6976 34.2598 54.3586C34.2598 54.0196 34.3163 53.6806 34.4151 53.3699ZM35.3615 54.9378C35.4039 55.1214 35.4886 55.2909 35.5875 55.4463C35.6864 55.6016 35.8276 55.7146 35.983 55.8135C36.1525 55.8983 36.3503 55.9548 36.5763 55.9548C36.8023 55.9548 37.0141 55.9124 37.1695 55.8135C37.339 55.7288 37.4661 55.6016 37.565 55.4463C37.6639 55.2909 37.7345 55.1214 37.791 54.9378C37.8334 54.7541 37.8616 54.5564 37.8616 54.3586C37.8616 54.1609 37.8334 53.949 37.791 53.7513C37.7486 53.5535 37.6639 53.384 37.565 53.2286C37.4661 53.0733 37.3249 52.9603 37.1695 52.8614C37 52.7766 36.8023 52.7201 36.5763 52.7201C36.3503 52.7201 36.1384 52.7625 35.983 52.8614C35.8135 52.9461 35.6864 53.0733 35.5875 53.2286C35.4886 53.384 35.4039 53.5535 35.3615 53.7513C35.3191 53.949 35.2909 54.1468 35.2909 54.3586C35.2909 54.5705 35.3191 54.7541 35.3615 54.9378Z" fill="#0D2B59"/>
<path d="M41.1102 51.9574L42.2261 55.2203L43.2713 51.9574H44.7403V56.7034H43.7657V53.3416L42.6074 56.7034H41.8023L40.6441 53.3699V56.7034H39.6694V51.9574H41.1384H41.1102Z" fill="#0D2B59"/>
<path d="M48.0315 51.9574L49.8112 56.7034H48.7236L48.3705 55.644H46.5907L46.2235 56.7034H45.1782L46.9721 51.9574H48.0456H48.0315ZM48.1021 54.8813L47.5088 53.1439L46.8873 54.8813H48.1162H48.1021Z" fill="#0D2B59"/>
<path d="M53.0457 56.6751C52.8197 56.774 52.5937 56.8164 52.3536 56.8164C51.9863 56.8164 51.6614 56.7458 51.3789 56.6328C51.0823 56.5056 50.8422 56.3361 50.6445 56.1101C50.4467 55.8841 50.2913 55.6299 50.1783 55.3333C50.0653 55.0366 50.0229 54.7118 50.0229 54.3728C50.0229 54.0338 50.0795 53.6948 50.1783 53.384C50.2913 53.0733 50.4326 52.819 50.6445 52.593C50.8563 52.367 51.0823 52.1834 51.3789 52.0563C51.6756 51.9291 52.0005 51.8585 52.3536 51.8585C52.5937 51.8585 52.8338 51.9009 53.0598 51.9715C53.2858 52.0421 53.4977 52.1551 53.6813 52.2964C53.8649 52.4376 54.0203 52.6071 54.1333 52.819C54.2463 53.0309 54.3311 53.271 54.3593 53.5394H53.3565C53.3 53.271 53.1728 53.0733 53.0033 52.9461C52.8338 52.819 52.6078 52.7484 52.3536 52.7484C52.1135 52.7484 51.9157 52.7908 51.7603 52.8896C51.5908 52.9744 51.4637 53.1015 51.3648 53.2569C51.2659 53.4123 51.1812 53.5818 51.1388 53.7795C51.0965 53.9773 51.0682 54.175 51.0682 54.3869C51.0682 54.5988 51.0965 54.7824 51.1388 54.966C51.1812 55.1496 51.2659 55.3191 51.3648 55.4745C51.4637 55.6299 51.6049 55.7429 51.7603 55.8418C51.9298 55.9265 52.1276 55.983 52.3536 55.983C52.6926 55.983 52.961 55.8983 53.1587 55.7146C53.3423 55.5451 53.4553 55.2909 53.4836 54.9519H52.4383V54.175H54.43V56.7458H53.7661L53.6531 56.209C53.4694 56.4491 53.2576 56.6186 53.0316 56.7175L53.0457 56.6751Z" fill="#0D2B59"/>
<path d="M57.6364 51.9574L59.4162 56.7034H58.3286L57.9754 55.644H56.1957L55.8285 56.7034H54.7832L56.5771 51.9574H57.6506H57.6364ZM57.7071 54.8813L57.1138 53.1439L56.4923 54.8813H57.7212H57.7071Z" fill="#0D2B59"/>
<path d="M62.0718 52.8473H59.7271V51.9715H63.4702V52.7908L60.9277 55.8418H63.5408V56.7175H59.5293V55.8983L62.0718 52.8473Z" fill="#0D2B59"/>
<path d="M65.1932 51.9574V56.7034H64.1479V51.9574H65.1932Z" fill="#0D2B59"/>
<path d="M67.1429 51.9574L69.1204 55.1496V51.9574H70.095V56.7034H69.0498L67.0723 53.5253V56.7034H66.0977V51.9574H67.1288H67.1429Z" fill="#0D2B59"/>
<path d="M74.5864 51.9574V52.8331H72.0721V53.8501H74.3745V54.6553H72.0721V55.8135H74.6287V56.6893H71.0269V51.9433H74.5864V51.9574Z" fill="#0D2B59"/>
</svg>
