<svg width="200" height="200" viewBox="0 0 200 200" fill="none" xmlns="http://www.w3.org/2000/svg">
<path d="M100 200C155.228 200 200 155.228 200 100C200 44.7715 155.228 0 100 0C44.7715 0 0 44.7715 0 100C0 155.228 44.7715 200 100 200Z" fill="#A7F797"/>
<path d="M58.7414 71.4266L63.5531 89.3326C63.8917 90.6308 64.569 91.6044 65.585 92.2252C66.615 92.8602 67.7438 93.1706 68.9856 93.1706C70.2273 93.1706 71.3843 92.832 72.3579 92.1688C73.3456 91.5056 74.0229 90.4897 74.418 89.1351L79.2579 71.4548L81.7131 93.0295H90.1793L86.5529 67.4757C86.2848 65.599 85.5652 64.188 84.4082 63.2144C83.2511 62.2549 81.7695 61.761 79.9916 61.761C78.3548 61.761 76.9156 62.1561 75.6456 62.9322C74.3757 63.7223 73.5291 64.9499 73.1058 66.6432L68.9856 82.7431L64.823 66.5021C64.3997 64.8088 63.5813 63.5953 62.3537 62.8616C61.1261 62.1279 59.7151 61.7469 58.1206 61.7469C56.2721 61.7469 54.7623 62.2266 53.5629 63.172C52.3636 64.1174 51.6157 65.5002 51.3194 67.3205L47.2838 93.0013H55.8065L58.7414 71.3843V71.4266Z" fill="#0D2B59"/>
<path d="M135.586 83.8013H148.822V76.0971H135.586V70.1566H152.773V62.4524H134.457C131.889 62.4524 130.041 63.0874 128.912 64.3573C127.783 65.6272 127.219 67.3346 127.219 69.4793V93.0436H135.6V83.8013H135.586Z" fill="#0D2B59"/>
<path d="M97.5589 89.1068C99.0264 90.5602 100.734 91.689 102.681 92.5074C104.628 93.3258 106.745 93.735 109.045 93.735C111.105 93.735 112.996 93.4669 114.731 92.9448C116.467 92.4227 117.991 91.689 119.303 90.7436C120.615 89.8123 121.659 88.7399 122.45 87.5264V76.1112H106.279L107.408 83.8154H114.336V84.7608C113.913 85.1559 113.447 85.4522 112.939 85.6498C112.431 85.8473 111.853 85.9884 111.218 86.059C110.583 86.1295 109.863 86.1719 109.045 86.1719C107.902 86.1719 106.858 85.9884 105.912 85.6074C104.981 85.2265 104.177 84.6762 103.528 83.9565C102.879 83.2369 102.385 82.3621 102.032 81.3461C101.679 80.3302 101.51 79.2013 101.51 77.9314C101.51 76.6615 101.679 75.6173 102.004 74.6296C102.328 73.6419 102.822 72.767 103.457 72.0474C104.092 71.3278 104.84 70.7492 105.729 70.3542C106.604 69.945 107.591 69.7474 108.678 69.7474C109.849 69.7474 110.851 69.9026 111.669 70.2272C112.488 70.5376 113.165 70.9891 113.729 71.5676C114.294 72.1462 114.774 72.8235 115.197 73.5995L122.04 69.7897C121.321 68.0683 120.277 66.6149 118.908 65.4438C117.553 64.2726 116.015 63.3695 114.308 62.7769C112.601 62.1702 110.837 61.8738 109.031 61.8738C106.731 61.8738 104.6 62.283 102.639 63.1014C100.677 63.9198 98.9559 65.0487 97.5025 66.502C96.035 67.9554 94.9062 69.6486 94.1019 71.5818C93.2976 73.5149 92.9025 75.6032 92.9025 77.8326C92.9025 80.0621 93.3117 82.1504 94.1301 84.0835C94.9485 86.0166 96.0915 87.7099 97.5448 89.1632L97.5589 89.1068Z" fill="#0D2B59"/>
<path d="M81.7272 126.908H90.1934L86.567 101.355C86.2989 99.4779 85.5793 98.0669 84.4223 97.0933C83.2652 96.1338 81.7836 95.6399 80.0057 95.6399C78.3689 95.6399 76.9297 96.035 75.6597 96.8111C74.3898 97.6012 73.5432 98.8288 73.1199 100.522L68.9996 116.622L64.8371 100.381C64.4138 98.6877 63.5954 97.4742 62.3678 96.7405C61.1402 96.0068 59.7292 95.6258 58.1347 95.6258C56.2862 95.6258 54.7764 96.1055 53.577 97.0509C52.3777 97.9963 51.6298 99.3792 51.3335 101.199L47.2979 126.88H55.8206L58.7555 105.263L63.5672 123.169C63.9058 124.467 64.5831 125.441 65.5991 126.062C66.6291 126.697 67.7579 127.007 68.9996 127.007C70.2414 127.007 71.3984 126.669 72.372 126.005C73.3597 125.342 74.037 124.326 74.4321 122.972L79.272 105.291L81.7272 126.866V126.908Z" fill="#0D2B59"/>
<path d="M107.634 103.175C107.789 103.175 107.902 103.33 108.001 103.626L114.393 126.908H122.958L115.07 101.171C114.491 99.2945 113.504 97.9117 112.107 97.0086C110.696 96.1056 109.2 95.6541 107.606 95.6541C106.011 95.6541 104.544 96.1056 103.118 97.0086C101.693 97.9117 100.706 99.3086 100.127 101.171L92.2394 126.908H100.804L107.281 103.626C107.366 103.33 107.493 103.175 107.648 103.175H107.634Z" fill="#0D2B59"/>
<path d="M127.586 122.972C129.053 124.425 130.761 125.554 132.708 126.372C134.655 127.191 136.771 127.6 139.071 127.6C141.132 127.6 143.022 127.332 144.758 126.81C146.494 126.288 148.017 125.554 149.33 124.608C150.642 123.677 151.686 122.605 152.476 121.391V109.976H136.306L137.435 117.68H144.363V118.626C143.94 119.021 143.474 119.317 142.966 119.515C142.458 119.712 141.879 119.853 141.244 119.924C140.61 119.994 139.89 120.037 139.071 120.037C137.929 120.037 136.884 119.853 135.939 119.472C135.008 119.091 134.203 118.541 133.554 117.821C132.905 117.102 132.411 116.227 132.059 115.211C131.706 114.195 131.537 113.066 131.537 111.796C131.537 110.526 131.706 109.482 132.03 108.494C132.369 107.493 132.849 106.632 133.484 105.912C134.119 105.193 134.867 104.614 135.756 104.219C136.63 103.81 137.618 103.612 138.705 103.612C139.876 103.612 140.878 103.767 141.696 104.092C142.514 104.402 143.192 104.854 143.756 105.433C144.321 106.011 144.8 106.688 145.224 107.464L152.067 103.655C151.347 101.933 150.303 100.48 148.935 99.3086C147.58 98.1375 146.042 97.2344 144.335 96.6418C142.627 96.035 140.864 95.7387 139.057 95.7387C136.757 95.7387 134.627 96.1479 132.665 96.9663C130.704 97.7847 128.983 98.9135 127.529 100.367C126.062 101.82 124.933 103.514 124.129 105.447C123.324 107.38 122.929 109.468 122.929 111.698C122.929 113.927 123.338 116.015 124.157 117.948C124.975 119.882 126.118 121.575 127.572 123.028L127.586 122.972Z" fill="#0D2B59"/>
<path d="M49.3863 134.26L50.9666 138.902H50.9807L52.4764 134.26H54.5648V141.019H53.1678V136.235H53.1537L51.5028 141.019H50.3599L48.709 136.278H48.6949V141.019H47.2979V134.26H49.3863Z" fill="#0D2B59"/>
<path d="M60.9285 134.26V135.502H57.3585V136.955H60.6321V138.112H57.3585V139.763H60.999V141.019H55.877V134.26H60.9285Z" fill="#0D2B59"/>
<path d="M66.0082 140.962C65.6837 141.103 65.3592 141.16 65.0346 141.16C64.5125 141.16 64.0469 141.075 63.6377 140.892C63.2285 140.708 62.8757 140.468 62.5935 140.144C62.3113 139.834 62.0856 139.453 61.9445 139.029C61.7892 138.606 61.7187 138.14 61.7187 137.646C61.7187 137.153 61.7892 136.673 61.9445 136.235C62.0997 135.798 62.3113 135.431 62.5935 135.107C62.8757 134.782 63.2285 134.528 63.6377 134.345C64.0469 134.161 64.5125 134.077 65.0346 134.077C65.3874 134.077 65.7119 134.133 66.0365 134.232C66.361 134.33 66.6573 134.486 66.9113 134.697C67.1653 134.909 67.391 135.149 67.5604 135.445C67.7297 135.742 67.8285 136.08 67.8708 136.461H66.4457C66.361 136.08 66.1917 135.798 65.9377 135.615C65.6837 135.431 65.3733 135.332 65.0205 135.332C64.6819 135.332 64.3997 135.403 64.1739 135.53C63.934 135.657 63.7506 135.826 63.6095 136.052C63.4684 136.264 63.3555 136.518 63.299 136.8C63.2285 137.082 63.2003 137.364 63.2003 137.661C63.2003 137.957 63.2285 138.225 63.299 138.493C63.3696 138.761 63.4684 139.001 63.6095 139.213C63.7506 139.424 63.9481 139.594 64.1739 139.735C64.4138 139.862 64.696 139.932 65.0205 139.932C65.5144 139.932 65.8953 139.805 66.1634 139.551C66.4315 139.297 66.5868 138.945 66.6291 138.465H65.1334V137.364H67.9696V141.019H67.0242L66.869 140.257C66.6009 140.595 66.3045 140.835 65.9941 140.976L66.0082 140.962Z" fill="#0D2B59"/>
<path d="M72.5413 134.26L75.0671 141.019H73.5291L73.0211 139.509H70.4953L69.9591 141.019H68.4634L71.0174 134.26H72.5413ZM72.6401 138.394L71.7935 135.911H71.7794L70.9045 138.394H72.6542H72.6401ZM72.0192 131.974L71.0174 133.653H71.9487L73.4867 131.974H72.0051H72.0192Z" fill="#0D2B59"/>
<path d="M80.4149 134.26V135.502H77.1554V137.068H79.9775V138.225H77.1554V141.019H75.6739V134.26H80.429H80.4149Z" fill="#0D2B59"/>
<path d="M81.205 136.264C81.3603 135.826 81.5719 135.459 81.8541 135.135C82.1363 134.81 82.4891 134.556 82.8983 134.373C83.3075 134.189 83.7731 134.105 84.2952 134.105C84.8173 134.105 85.2829 134.203 85.6921 134.373C86.1013 134.556 86.4541 134.81 86.7363 135.135C87.0185 135.459 87.2443 135.826 87.3854 136.264C87.5406 136.701 87.6111 137.167 87.6111 137.675C87.6111 138.183 87.5406 138.62 87.3854 139.057C87.2302 139.481 87.0185 139.848 86.7363 140.172C86.4541 140.483 86.1013 140.737 85.6921 140.92C85.2829 141.103 84.8173 141.188 84.2952 141.188C83.7731 141.188 83.3075 141.103 82.8983 140.92C82.4891 140.737 82.1363 140.497 81.8541 140.172C81.5719 139.862 81.3461 139.481 81.205 139.057C81.0498 138.634 80.9793 138.168 80.9793 137.675C80.9793 137.181 81.0498 136.701 81.205 136.264ZM82.5596 138.493C82.6302 138.761 82.729 139.001 82.8701 139.213C83.0112 139.424 83.2087 139.594 83.4345 139.735C83.6744 139.862 83.9566 139.932 84.2811 139.932C84.6056 139.932 84.902 139.862 85.1277 139.735C85.3676 139.608 85.551 139.438 85.6921 139.213C85.8332 139.001 85.9461 138.761 86.0026 138.493C86.0731 138.225 86.1013 137.943 86.1013 137.661C86.1013 137.378 86.0731 137.082 86.0026 136.8C85.932 136.518 85.8332 136.278 85.6921 136.052C85.551 135.84 85.3535 135.657 85.1277 135.53C84.8878 135.403 84.6056 135.332 84.2811 135.332C83.9566 135.332 83.6602 135.403 83.4345 135.53C83.1946 135.657 83.0112 135.826 82.8701 136.052C82.729 136.264 82.6161 136.518 82.5596 136.8C82.4891 137.082 82.4609 137.364 82.4609 137.661C82.4609 137.957 82.4891 138.225 82.5596 138.493Z" fill="#0D2B59"/>
<path d="M90.1088 134.26L92.9308 138.789H92.945V134.26H94.3419V141.019H92.8603L90.0523 136.503H90.0382V141.019H88.6413V134.26H90.1229H90.1088Z" fill="#0D2B59"/>
<path d="M95.5695 136.264C95.7247 135.826 95.9364 135.459 96.2186 135.135C96.5008 134.81 96.8535 134.556 97.2627 134.373C97.6719 134.189 98.1376 134.105 98.6596 134.105C99.1817 134.105 99.6474 134.203 100.057 134.373C100.466 134.556 100.819 134.81 101.101 135.135C101.383 135.459 101.609 135.826 101.75 136.264C101.905 136.701 101.976 137.167 101.976 137.675C101.976 138.183 101.905 138.62 101.75 139.057C101.595 139.481 101.383 139.848 101.101 140.172C100.819 140.483 100.466 140.737 100.057 140.92C99.6474 141.103 99.1817 141.188 98.6596 141.188C98.1376 141.188 97.6719 141.103 97.2627 140.92C96.8535 140.737 96.5008 140.497 96.2186 140.172C95.9364 139.862 95.7106 139.481 95.5695 139.057C95.4143 138.634 95.3437 138.168 95.3437 137.675C95.3437 137.181 95.4143 136.701 95.5695 136.264ZM96.9241 138.493C96.9946 138.761 97.0934 139.001 97.2345 139.213C97.3756 139.424 97.5732 139.594 97.7989 139.735C98.0388 139.862 98.321 139.932 98.6455 139.932C98.9701 139.932 99.2664 139.862 99.4922 139.735C99.732 139.608 99.9155 139.438 100.057 139.213C100.198 139.001 100.311 138.761 100.367 138.493C100.438 138.225 100.466 137.943 100.466 137.661C100.466 137.378 100.438 137.082 100.367 136.8C100.296 136.518 100.198 136.278 100.057 136.052C99.9155 135.84 99.7179 135.657 99.4922 135.53C99.2523 135.403 98.9701 135.332 98.6455 135.332C98.321 135.332 98.0247 135.403 97.7989 135.53C97.559 135.657 97.3756 135.826 97.2345 136.052C97.0934 136.264 96.9805 136.518 96.9241 136.8C96.8535 137.082 96.8253 137.364 96.8253 137.661C96.8253 137.957 96.8535 138.225 96.9241 138.493Z" fill="#0D2B59"/>
<path d="M105.094 134.26L106.674 138.902H106.688L108.184 134.26H110.272V141.019H108.875V136.235H108.861L107.21 141.019H106.067L104.417 136.278H104.402V141.019H103.006V134.26H105.094Z" fill="#0D2B59"/>
<path d="M114.943 134.26L117.469 141.019H115.931L115.423 139.509H112.897L112.361 141.019H110.865L113.419 134.26H114.943ZM115.028 138.394L114.181 135.911H114.167L113.292 138.394H115.042H115.028Z" fill="#0D2B59"/>
<path d="M122.054 140.962C121.73 141.103 121.405 141.16 121.081 141.16C120.559 141.16 120.093 141.075 119.684 140.892C119.275 140.708 118.922 140.468 118.64 140.144C118.357 139.834 118.132 139.453 117.991 139.029C117.835 138.606 117.765 138.14 117.765 137.646C117.765 137.153 117.835 136.673 117.991 136.235C118.146 135.798 118.357 135.431 118.64 135.107C118.922 134.782 119.275 134.528 119.684 134.345C120.093 134.161 120.559 134.077 121.081 134.077C121.434 134.077 121.758 134.133 122.083 134.232C122.407 134.33 122.703 134.486 122.957 134.697C123.211 134.909 123.437 135.149 123.607 135.445C123.776 135.742 123.875 136.08 123.917 136.461H122.492C122.407 136.08 122.238 135.798 121.984 135.615C121.73 135.431 121.419 135.332 121.067 135.332C120.728 135.332 120.446 135.403 120.22 135.53C119.98 135.657 119.797 135.826 119.656 136.052C119.515 136.264 119.402 136.518 119.345 136.8C119.275 137.082 119.246 137.364 119.246 137.661C119.246 137.957 119.275 138.225 119.345 138.493C119.416 138.761 119.515 139.001 119.656 139.213C119.797 139.424 119.994 139.594 120.22 139.735C120.46 139.862 120.742 139.932 121.067 139.932C121.561 139.932 121.941 139.805 122.21 139.551C122.478 139.297 122.633 138.945 122.675 138.465H121.18V137.364H124.016V141.019H123.07L122.915 140.257C122.647 140.595 122.351 140.835 122.04 140.976L122.054 140.962Z" fill="#0D2B59"/>
<path d="M128.602 134.26L131.127 141.019H129.589L129.081 139.509H126.556L126.019 141.019H124.524L127.078 134.26H128.602ZM128.686 138.394L127.84 135.911H127.826L126.951 138.394H128.7H128.686Z" fill="#0D2B59"/>
<path d="M134.909 135.502H131.565V134.26H136.885V135.431L133.258 139.763H136.969V141.019H131.269V139.848L134.895 135.516L134.909 135.502Z" fill="#0D2B59"/>
<path d="M139.34 134.26V141.019H137.858V134.26H139.34Z" fill="#0D2B59"/>
<path d="M142.12 134.26L144.942 138.789H144.956V134.26H146.353V141.019H144.871L142.063 136.503H142.049V141.019H140.652V134.26H142.134H142.12Z" fill="#0D2B59"/>
<path d="M152.702 134.26V135.502H149.132V136.955H152.406V138.112H149.132V139.763H152.773V141.019H147.651V134.26H152.702Z" fill="#0D2B59"/>
</svg>
