<svg width="76" height="57" viewBox="0 0 76 57" fill="none" xmlns="http://www.w3.org/2000/svg">
<path d="M8.62891 6.8365L12.0472 19.549C12.2873 20.4671 12.7675 21.1593 13.4879 21.6113C14.2224 22.0633 15.0275 22.2893 15.9033 22.2893C16.779 22.2893 17.5983 22.0491 18.3045 21.583C18.9967 21.1169 19.491 20.3965 19.7735 19.4219L23.2059 6.87888L24.9433 22.1904H30.9605L28.3898 4.05388C28.192 2.72613 27.6835 1.72325 26.8643 1.03113C26.045 0.339 24.9998 0 23.7285 0C22.5703 0 21.5392 0.2825 20.6352 0.833375C19.7312 1.38425 19.1379 2.27413 18.8272 3.47475L15.9033 14.9019L12.9512 3.37588C12.6545 2.17525 12.0613 1.31363 11.1997 0.791C10.338 0.268375 9.33517 0 8.19104 0C6.87742 0 5.80392 0.339 4.95641 1.017C4.10891 1.695 3.57217 2.66963 3.36029 3.955L0.49292 22.1904H6.53842L8.6148 6.8365H8.62891Z" fill="#A7F797"/>
<path d="M63.1797 15.6363H72.5728V10.17H63.1797V5.96072H75.3837V0.480225H62.3745C60.5524 0.480225 59.2388 0.932225 58.4337 1.83622C57.6285 2.74022 57.233 3.95497 57.233 5.46635V22.1903H63.1797V15.6363Z" fill="#A7F797"/>
<path d="M36.1868 19.3937C37.232 20.4248 38.4327 21.2299 39.8169 21.809C41.2012 22.3882 42.7125 22.6707 44.3369 22.6707C45.7918 22.6707 47.1337 22.487 48.3767 22.1057C49.6055 21.7243 50.6932 21.2158 51.6254 20.5519C52.5577 19.888 53.3063 19.1253 53.8572 18.2637V10.1559H42.3735L43.1787 15.6223H48.0942V16.3003C47.7975 16.5828 47.4727 16.7947 47.1054 16.9218C46.7382 17.063 46.3285 17.1619 45.8765 17.2043C45.4245 17.2608 44.916 17.289 44.3369 17.289C43.5177 17.289 42.7832 17.1619 42.1193 16.8935C41.4554 16.6252 40.8904 16.2297 40.4243 15.7212C39.9582 15.2127 39.605 14.5912 39.3649 13.8708C39.1248 13.1504 38.9977 12.3453 38.9977 11.4413C38.9977 10.5373 39.1107 9.80278 39.3508 9.09653C39.5909 8.39028 39.9299 7.78291 40.3819 7.26028C40.8339 6.75178 41.3707 6.34216 41.9922 6.05966C42.6137 5.77716 43.3058 5.62178 44.0827 5.62178C44.916 5.62178 45.6223 5.73478 46.2014 5.96078C46.7805 6.18678 47.2608 6.49753 47.6704 6.90716C48.0659 7.31678 48.419 7.79703 48.7157 8.34791L53.5747 5.65003C53.0662 4.42116 52.3175 3.40416 51.357 2.55666C50.3965 1.72328 49.3089 1.08766 48.0942 0.66391C46.8794 0.24016 45.6364 0.0141602 44.351 0.0141602C42.7267 0.0141602 41.2153 0.310785 39.8169 0.875785C38.4185 1.45491 37.2038 2.26003 36.1727 3.29116C35.1274 4.32228 34.3223 5.52291 33.7573 6.89303C33.1923 8.26316 32.9098 9.74628 32.9098 11.3283C32.9098 12.9103 33.1923 14.3934 33.7714 15.7635C34.3505 17.1337 35.1557 18.3343 36.2009 19.3654L36.1868 19.3937Z" fill="#A7F797"/>
<path d="M24.9433 46.2311H30.9606L28.3898 28.0946C28.1921 26.7669 27.6836 25.764 26.8643 25.0719C26.0451 24.3798 24.9998 24.0408 23.7285 24.0408C22.5703 24.0408 21.5392 24.3233 20.6352 24.8741C19.7312 25.4391 19.1379 26.3149 18.8272 27.5155L15.9033 38.9426L12.9512 27.4166C12.6546 26.216 12.0613 25.3544 11.1997 24.8318C10.338 24.3091 9.33517 24.0408 8.19105 24.0408C6.87742 24.0408 5.80392 24.3798 4.95642 25.0578C4.10892 25.7358 3.57218 26.7104 3.3603 27.9958L0.492928 46.2311H6.53843L8.6148 30.8773L12.0331 43.5898C12.2732 44.5079 12.7534 45.2 13.4738 45.652C14.2083 46.104 15.0134 46.33 15.8892 46.33C16.7649 46.33 17.5842 46.0899 18.2904 45.6238C18.9826 45.1576 19.4769 44.4373 19.7594 43.4626L23.1918 30.9196L24.9292 46.2311H24.9433Z" fill="#A7F797"/>
<path d="M43.3341 29.3801C43.4471 29.3801 43.5318 29.4931 43.5883 29.7049L48.1224 46.2312H54.1962L48.6027 27.9676C48.1931 26.6398 47.4868 25.6511 46.4981 25.0154C45.4952 24.3657 44.4358 24.0549 43.2917 24.0549C42.1476 24.0549 41.1164 24.3798 40.1136 25.0154C39.1107 25.6652 38.4044 26.6398 37.9948 27.9676L32.4013 46.2312H38.4751L43.0798 29.7049C43.1504 29.4931 43.2352 29.3801 43.3341 29.3801Z" fill="#A7F797"/>
<path d="M57.5014 43.4344C58.5467 44.4656 59.7473 45.2707 61.1316 45.8498C62.5158 46.4289 64.0272 46.7114 65.6516 46.7114C67.1064 46.7114 68.4483 46.5278 69.6913 46.1464C70.9202 45.7651 72.0078 45.2566 72.94 44.5927C73.8723 43.9288 74.6209 43.1661 75.1718 42.3044V34.1967H63.6882L64.4933 39.6631H69.4088V40.3411C69.1122 40.6236 68.7873 40.8354 68.42 40.9626C68.0528 41.1038 67.6432 41.2027 67.1912 41.2451C66.7392 41.3016 66.2307 41.3298 65.6516 41.3298C64.8323 41.3298 64.0978 41.2027 63.4339 40.9343C62.77 40.6659 62.2051 40.2704 61.7389 39.7619C61.2728 39.2534 60.9197 38.6319 60.6796 37.9116C60.4394 37.1912 60.3123 36.3861 60.3123 35.4821C60.3123 34.5781 60.4253 33.8436 60.6654 33.1373C60.9055 32.4311 61.2445 31.8237 61.6965 31.3011C62.1485 30.7926 62.6853 30.3829 63.3068 30.1004C63.9283 29.8179 64.6204 29.6626 65.3973 29.6626C66.2307 29.6626 66.9369 29.7756 67.516 30.0016C68.0952 30.2276 68.5754 30.5383 68.985 30.9479C69.3805 31.3576 69.7337 31.8378 70.0303 32.3887L74.8893 29.6908C74.3808 28.4619 73.6322 27.4449 72.6717 26.5974C71.7112 25.7641 70.6235 25.1284 69.4088 24.7047C68.194 24.2809 66.951 24.0549 65.6657 24.0549C64.0413 24.0549 62.5299 24.3516 61.1316 24.9166C59.7332 25.4957 58.5184 26.3008 57.4873 27.3319C56.442 28.3631 55.6369 29.5637 55.0719 30.9338C54.5069 32.3039 54.2244 33.7871 54.2244 35.3691C54.2244 36.9511 54.5069 38.4342 55.086 39.8043C55.6652 41.1744 56.4703 42.3751 57.5155 43.4062L57.5014 43.4344Z" fill="#A7F797"/>
<path d="M2.42804 51.4575L3.54392 54.7204L4.58917 51.4575H6.05817V56.2035H5.08355V52.8418L3.9253 56.2035H3.12018L1.96193 52.87V56.2035H0.987297V51.4575H2.4563H2.42804Z" fill="#A7F797"/>
<path d="M10.5499 51.4575V52.3332H8.03567V53.3502H10.3381V54.1554H8.03567V55.3136H10.5923V56.1894H6.99043V51.4434H10.5499V51.4575Z" fill="#A7F797"/>
<path d="M14.1235 56.1753C13.8975 56.2741 13.6715 56.3165 13.4314 56.3165C13.0642 56.3165 12.7393 56.2459 12.4568 56.1329C12.1602 56.0058 11.92 55.8363 11.7223 55.6103C11.5245 55.3843 11.3692 55.13 11.2562 54.8334C11.1432 54.5368 11.1008 54.2119 11.1008 53.8729C11.1008 53.5339 11.1573 53.1949 11.2562 52.8841C11.3692 52.5734 11.5104 52.3191 11.7223 52.0931C11.9342 51.8671 12.1602 51.6835 12.4568 51.5564C12.7534 51.4293 13.0783 51.3586 13.4314 51.3586C13.6715 51.3586 13.9117 51.401 14.1377 51.4716C14.3637 51.5423 14.5755 51.6553 14.7592 51.7965C14.9428 51.9378 15.0982 52.1073 15.2112 52.3191C15.3242 52.531 15.4089 52.7711 15.4372 53.0395H14.4343C14.3778 52.7711 14.2507 52.5734 14.0812 52.4463C13.9117 52.3191 13.6857 52.2485 13.4314 52.2485C13.1913 52.2485 12.9935 52.2909 12.8382 52.3898C12.6687 52.4745 12.5415 52.6016 12.4427 52.757C12.3438 52.9124 12.259 53.0819 12.2167 53.2796C12.1743 53.4774 12.146 53.6751 12.146 53.887C12.146 54.0989 12.1743 54.2825 12.2167 54.4661C12.259 54.6498 12.3438 54.8193 12.4427 54.9746C12.5415 55.13 12.6828 55.243 12.8382 55.3419C13.0077 55.4266 13.2054 55.4831 13.4314 55.4831C13.7704 55.4831 14.0388 55.3984 14.2365 55.2148C14.4202 55.0453 14.5332 54.791 14.5614 54.452H13.5162V53.6751H15.5078V56.2459H14.8439L14.7309 55.7091C14.5473 55.9493 14.3354 56.1188 14.1094 56.2176L14.1235 56.1753Z" fill="#A7F797"/>
<path d="M18.7142 51.4575L20.4939 56.2035H19.4063L19.0532 55.1441H17.2734L16.9062 56.2035H15.8609L17.6548 51.4575H18.7283H18.7142ZM18.7848 54.3813L18.1915 52.644L17.57 54.3813H18.7989H18.7848ZM18.3469 49.8613L17.6407 51.0337H18.3045L19.3922 49.8613H18.361H18.3469Z" fill="#A7F797"/>
<path d="M24.2512 51.4575V52.3333H21.9629V53.435H23.9546V54.2401H21.9629V56.2035H20.9177V51.4575H24.2512Z" fill="#A7F797"/>
<path d="M24.802 52.87C24.915 52.5592 25.0563 52.305 25.2682 52.079C25.48 51.853 25.706 51.6694 26.0027 51.5422C26.2993 51.4151 26.6242 51.3445 26.9773 51.3445C27.3304 51.3445 27.6694 51.4151 27.966 51.5422C28.2485 51.6694 28.5028 51.853 28.7005 52.079C28.8983 52.305 29.0537 52.5734 29.1525 52.87C29.2655 53.1666 29.3079 53.5056 29.3079 53.8587C29.3079 54.2119 29.2514 54.5226 29.1525 54.8192C29.0395 55.1159 28.8983 55.3842 28.7005 55.5961C28.5028 55.8221 28.2627 55.9916 27.966 56.1187C27.6835 56.2459 27.3445 56.3024 26.9773 56.3024C26.61 56.3024 26.2852 56.2317 26.0027 56.1187C25.706 55.9916 25.4659 55.8221 25.2682 55.5961C25.0704 55.3701 24.915 55.1159 24.802 54.8192C24.689 54.5226 24.6467 54.1977 24.6467 53.8587C24.6467 53.5197 24.7032 53.1807 24.802 52.87ZM25.7625 54.4379C25.8049 54.6215 25.8897 54.791 25.9885 54.9464C26.0874 55.1017 26.2287 55.2147 26.384 55.3136C26.5535 55.3984 26.7513 55.4549 26.9773 55.4549C27.2033 55.4549 27.4152 55.4125 27.5705 55.3136C27.74 55.2289 27.8672 55.1017 27.966 54.9464C28.0649 54.791 28.1355 54.6215 28.192 54.4379C28.2344 54.2542 28.2627 54.0565 28.2627 53.8587C28.2627 53.661 28.2344 53.4491 28.192 53.2514C28.1497 53.0536 28.0649 52.8841 27.966 52.7287C27.8672 52.5734 27.7259 52.4604 27.5705 52.3615C27.401 52.2767 27.2033 52.2202 26.9773 52.2202C26.7513 52.2202 26.5394 52.2626 26.384 52.3615C26.2145 52.4462 26.0874 52.5734 25.9885 52.7287C25.8897 52.8841 25.8049 53.0536 25.7625 53.2514C25.7202 53.4491 25.6919 53.6469 25.6919 53.8587C25.6919 54.0706 25.7202 54.2542 25.7625 54.4379Z" fill="#A7F797"/>
<path d="M31.0735 51.4575L33.051 54.6498V51.4575H34.0257V56.2035H32.9804L31.0029 53.0254V56.2035H30.0283V51.4575H31.0594H31.0735Z" fill="#A7F797"/>
<path d="M34.9155 52.87C35.0285 52.5592 35.1698 52.305 35.3817 52.079C35.5935 51.853 35.8195 51.6694 36.1162 51.5422C36.4128 51.4151 36.7377 51.3445 37.0908 51.3445C37.4439 51.3445 37.7829 51.4151 38.0795 51.5422C38.362 51.6694 38.6163 51.853 38.814 52.079C39.0118 52.305 39.1672 52.5734 39.266 52.87C39.379 53.1666 39.4214 53.5056 39.4214 53.8587C39.4214 54.2119 39.3649 54.5226 39.266 54.8192C39.153 55.1159 39.0118 55.3842 38.814 55.5961C38.6163 55.8221 38.3762 55.9916 38.0795 56.1187C37.797 56.2459 37.458 56.3024 37.0908 56.3024C36.7235 56.3024 36.3987 56.2317 36.1162 56.1187C35.8195 55.9916 35.5794 55.8221 35.3817 55.5961C35.1839 55.3701 35.0285 55.1159 34.9155 54.8192C34.8025 54.5226 34.7602 54.1977 34.7602 53.8587C34.7602 53.5197 34.8167 53.1807 34.9155 52.87ZM35.8619 54.4379C35.9043 54.6215 35.989 54.791 36.0879 54.9464C36.1868 55.1017 36.328 55.2147 36.4834 55.3136C36.6529 55.3984 36.8507 55.4549 37.0767 55.4549C37.3027 55.4549 37.5145 55.4125 37.6699 55.3136C37.8394 55.2289 37.9665 55.1017 38.0654 54.9464C38.1643 54.791 38.2349 54.6215 38.2914 54.4379C38.3338 54.2542 38.362 54.0565 38.362 53.8587C38.362 53.661 38.3338 53.4491 38.2914 53.2514C38.249 53.0536 38.1643 52.8841 38.0654 52.7287C37.9665 52.5734 37.8253 52.4604 37.6699 52.3615C37.5004 52.2767 37.3027 52.2202 37.0767 52.2202C36.8507 52.2202 36.6388 52.2626 36.4834 52.3615C36.3139 52.4462 36.1868 52.5734 36.0879 52.7287C35.989 52.8841 35.9043 53.0536 35.8619 53.2514C35.8195 53.4491 35.7913 53.6469 35.7913 53.8587C35.7913 54.0706 35.8195 54.2542 35.8619 54.4379Z" fill="#A7F797"/>
<path d="M41.6108 51.4575L42.7267 54.7204L43.7719 51.4575H45.2409V56.2035H44.2663V52.8418L43.108 56.2035H42.3029L41.1447 52.87V56.2035H40.17V51.4575H41.639H41.6108Z" fill="#A7F797"/>
<path d="M48.532 51.4575L50.3118 56.2035H49.2242L48.8711 55.1441H47.0913L46.724 56.2035H45.6788L47.4727 51.4575H48.5462H48.532ZM48.6027 54.3814L48.0094 52.644L47.3879 54.3814H48.6168H48.6027Z" fill="#A7F797"/>
<path d="M53.5464 56.1753C53.3204 56.2741 53.0944 56.3165 52.8543 56.3165C52.487 56.3165 52.1622 56.2459 51.8797 56.1329C51.583 56.0058 51.3429 55.8363 51.1452 55.6103C50.9474 55.3843 50.792 55.13 50.679 54.8334C50.566 54.5368 50.5237 54.2119 50.5237 53.8729C50.5237 53.5339 50.5802 53.1949 50.679 52.8841C50.792 52.5734 50.9333 52.3191 51.1452 52.0931C51.357 51.8671 51.583 51.6835 51.8797 51.5564C52.1763 51.4293 52.5012 51.3586 52.8543 51.3586C53.0944 51.3586 53.3345 51.401 53.5605 51.4716C53.7865 51.5423 53.9984 51.6553 54.182 51.7965C54.3657 51.9378 54.521 52.1073 54.634 52.3191C54.747 52.531 54.8318 52.7711 54.86 53.0395H53.8572C53.8007 52.7711 53.6735 52.5734 53.504 52.4463C53.3345 52.3191 53.1085 52.2485 52.8543 52.2485C52.6142 52.2485 52.4164 52.2909 52.261 52.3898C52.0915 52.4745 51.9644 52.6016 51.8655 52.757C51.7667 52.9124 51.6819 53.0819 51.6395 53.2796C51.5972 53.4774 51.5689 53.6751 51.5689 53.887C51.5689 54.0989 51.5972 54.2825 51.6395 54.4661C51.6819 54.6498 51.7667 54.8193 51.8655 54.9746C51.9644 55.13 52.1057 55.243 52.261 55.3419C52.4305 55.4266 52.6283 55.4831 52.8543 55.4831C53.1933 55.4831 53.4617 55.3984 53.6594 55.2148C53.843 55.0453 53.956 54.791 53.9843 54.452H52.939V53.6751H54.9307V56.2459H54.2668L54.1538 55.7091C53.9702 55.9493 53.7583 56.1188 53.5323 56.2176L53.5464 56.1753Z" fill="#A7F797"/>
<path d="M58.137 51.4575L59.9168 56.2035H58.8292L58.476 55.1441H56.6963L56.329 56.2035H55.2838L57.0777 51.4575H58.1512H58.137ZM58.2077 54.3814L57.6144 52.644L56.9929 54.3814H58.2218H58.2077Z" fill="#A7F797"/>
<path d="M62.5723 52.3474H60.2275V51.4717H63.9707V52.2909L61.4282 55.3419H64.0413V56.2177H60.0298V55.3984L62.5723 52.3474Z" fill="#A7F797"/>
<path d="M65.6939 51.4575V56.2035H64.6487V51.4575H65.6939Z" fill="#A7F797"/>
<path d="M67.6432 51.4575L69.6207 54.6498V51.4575H70.5953V56.2035H69.5501L67.5725 53.0254V56.2035H66.5979V51.4575H67.629H67.6432Z" fill="#A7F797"/>
<path d="M75.087 51.4575V52.3332H72.5728V53.3502H74.8752V54.1554H72.5728V55.3136H75.1294V56.1894H71.5275V51.4434H75.087V51.4575Z" fill="#A7F797"/>
</svg>
